<?xml version="1.0" encoding="utf-8"?>
<!-- Generator: Adobe Illustrator 19.2.1, SVG Export Plug-In . SVG Version: 6.00 Build 0)  -->
<svg version="1.1" id="Слой_1" xmlns="http://www.w3.org/2000/svg" xmlns:xlink="http://www.w3.org/1999/xlink" x="0px" y="0px"
	 viewBox="0 0 74.4 149.1" style="enable-background:new 0 0 74.4 149.1;" xml:space="preserve">
<style type="text/css">
	.st0{display:none;}
	.st1{display:inline;fill:none;enable-background:new    ;}
	.st2{fill:#54320A;}
	.st3{fill:#69E063;}
	.st4{fill:#56D34C;}
</style>
<g id="Слой_1_1_" class="st0">
	
		<image style="display:inline;overflow:visible;" width="500" height="248" xlink:href="711737A0.png"  transform="matrix(1.266982e-011 -0.2822 0.2822 1.266982e-011 -0.5688 148.6)">
	</image>
	<path class="st1" d="z"/>
</g>
<g id="Слой_2">
</g>
<g id="Слой_3">
</g>
<g id="Слой_4">
	<g id="XMLID_35_">
		<path id="XMLID_3_" class="st2" d="M16.7,148.4l-0.3-2.3l1-3.2l0.8-3.4l0.8-3.2l0.7-2.1l0.3-1.5v-0.8l-1.4-1.9l-0.9-1.1l-1.1-1.5
			l-0.9-1.3l-0.6-1.2l-1.2-2l-0.8-1.3l-0.8-1.1l-0.6-1.7l-0.3-1.4l-0.2-1.5l0.1-1.7l0.5-2.9l0.9-3.1l0.9-2.5v-1.3v-1.6v-1.5
			l-0.4-1.8l-1.6-4h0.6l1.3,1.7l1.1,2.2l0.4-0.5l0.1-2l0.1-1.5l0.4-4l0.8,0.9V96l0.1,1.2l-0.2,2.1l-0.3,2l-0.4,1.5l-0.2,1.4
			l-0.3,1.3l-0.5,1.5l-0.2,1.4l-0.3,1.4l-0.4,1.7l-0.3,2.6l-0.2,2.1l0.2,1.4l0.5,1.1l0.6,0.9l0.6,1.3l0.9,1.4l0.6,1.1l0.8,1l0.9,1.3
			l0.9,1.3l0.7,0.8l1.2,0.5l0.5-0.7l0.9-2.8l0.8-2.7l0.9-2.9l1.1-2.6l1.2-3l2-4.1l1.3-2.7l0.8-1.5c0,0,0.8-1.2,0.8-1.3
			s0.8-1.3,0.8-1.3l0.7-1.4l2.4-4.5l1.3-2.8l1.2-2.9l1.3-3.3l1.3-3.3l0.7-2.6l0.5-2.5l0.3-2.3l0.1-2.4l-0.2-2.4l-0.6-3.5l-0.7-2.4
			l-0.7-2.1l-0.9-2.7l-0.6-0.9l-0.2-1L38,58.8l-0.6-1.5l-1-1.8l-0.9-1.7l-0.8-1.5l-1.1-1l-0.9-0.9l-0.8-0.9l-0.6-0.6l-0.6-0.5
			l-1.3,0.5l-1.9,0.6l-1.6,1.1l-1.7,0.2l0.2-0.4l0.9-0.6l0.3-0.5l0.6,0.1l1.9-0.6l1.5-0.5l0.6-0.3L29,46.8L28.1,46l-1.2-1.2l-1-0.8
			l-1.2-0.8l-1.1-0.8l-1.3-0.8L21.2,41l-0.8-0.5L19.1,40l-1.9-1.1l1.6-0.2l1,0.1l1.4,0.8l1.9,1l1.1,0.8l1.4,0.8l1.2,0.8l1.1,0.6
			l1.4,1.5l0.8,0.9l1.1,1.2l1.1,1.2l0.9,0.7l0.9,0.3l0.3-0.2l-1.5-4.1l-0.5-1.6l-1.7-6l-2.1-8L27.2,26l-1.3-4l-1.1-2.8l-0.9-1.1
			l-1-1.9l-1.4-2.3l-1.1-1.8l-0.8-1.7l2.6,2.3l1,1.2l1.1,1.5l1.1,1.1l0.8,1.4l0.9,1.9l2,4.8l1,2.3l0.8,2.7l1.3,3.3l0.7,2l0.6,2.1
			l0.8-2.1l0.5-1.7l0.4-1.3l0.5-1.5l0.5-1.4l0.4-1.5l0.8-1.7l0.4,0.2l0.1,1.3l-0.5,0.9l-0.5,1.2L36.4,31L36,32.2l-0.3,1l-0.4,1.1
			l-0.2,0.8c0,0-0.2,0.5-0.3,0.8c0,0.2-0.3,1.1-0.3,1.1l-0.3,0.9l-0.3,0.5l0.6,1.1l0.9,3.4l3.2,8.2l1.4,3.6l0.7,0.7l0.2,1.5l0.5,1.4
			l0.8,2.1l0.9,2.2l0.8,2.1l0.7,2.3l0.8,2.2l0.4,1.9l0.1,2.2l0.2,2.3L46,78.9l-0.3,2.7l-1.5,5.9l-1.7,6l-2.7,7.3l-1.4,3.5l-1.4,3
			l-1.3,2.7l-1.4,3.3l0.7,0.6l5.2-3l3-1.3l3.4-1.9l2.4-1.4l2.1-1.1l0.7-0.7l0.8-0.4l0.8-0.6l0.9-1.1l1.1-1.3l0.7-1l0.5-1.1l0.5-1
			l0.2-1.3l0.6-1.2l0.4-2.4l0.7-2.2l1-2.3l0.8-1.6l0.7-1l1.9-1.9l0.4,0.5l-1,1.7L62,87.7l-0.6,2.7l-0.5,2.4l-0.4,1.7l-0.5,2
			l-0.6,2.1l-0.6,2l-0.6,1.6l-0.9,1.3l-1.2,1.3c0,0-1.9,1.8-2.1,1.9c-0.2,0.1-3.8,3-3.8,3l-0.3,0.7l-0.8,0.1l-1.8,1.2l-1.2,0.8
			l-0.9,0.8l-1.6,0.7l-2.4,1.5l-1.8,1l-1.1,0.8l-1.5,0.9l-1.6,1.4l-1.1,0.9l-1,0.7l-1.1,1l-0.8,1.4l-0.6,1.2l-0.5,1.1l-0.4,1.2
			l-0.2,0.7l-0.4,1.2l-0.4,1.8l-0.4,1.3l-0.3,1.4l-0.3,2l-0.2,2.7l-0.1,1.9l0.1,1.8v2.3l0.6,1.4l0.1,1.7l-0.1,1.1h-0.9l-0.5,0.7
			l-0.4-0.9l-0.4-0.8l-0.1,1.3l-0.8-0.2l-0.7-0.9l-1.1,1.1l-0.4-1.5l-1,1.6l-0.8-1l-1,0.9h-0.8l-0.6-1.1l-0.4,0.8H16.7z"/>
		<path id="XMLID_4_" class="st3" d="M44.5,31.2L44.4,31h-0.5l-0.5-0.2l-0.6-0.2l-0.5-0.2L42,30.3l-0.4-0.2L41.3,30l-1-0.2l-1-0.3
			l-1.2,0.1h-0.5l-0.5,0.3l-0.4,0.3L36.3,31l-0.4,0.3l0.4,0.1l0.6,0.4l0.5,0.5l0.4,0.3l0.4,0.4l0.5,0.2l0.5,0.2l0.6,0.1
			c0,0,0.5,0,0.6-0.1s0.6-0.1,0.6-0.1l0.4-0.2l0.4-0.1l0.3-0.1h0.4l0.6-0.6l0.5-0.1l0.5-0.4L44.5,31.2z"/>
		<polygon id="XMLID_2_" class="st3" points="37.4,26.1 37.7,25.9 38,25.8 38.3,25.7 38.4,25.9 38.7,26 39,26.1 39.5,26.4 
			39.9,26.5 40.4,26.5 40.9,26.4 41.5,26.4 41.9,26.4 42.3,26.4 42.7,26.5 43.2,26.4 43.7,26.3 44.1,26.2 44.9,25.7 45.5,25.2 
			45.9,24.7 46.2,24.3 46.5,23.8 46.6,23.3 46.9,23 47.1,22.4 47.2,21.8 47.5,21.1 47.8,20.8 48.1,20.5 48.4,20.5 48.5,20.3 
			48.6,20.1 48.2,20.1 48.1,20 47.5,19.9 47.1,19.7 46.7,19.6 46.1,19.5 45.6,19.4 45.2,19.3 45,19.1 44.8,19 44.5,18.9 43.6,18.7 
			43.2,18.7 42.7,18.7 42.3,18.8 41.9,18.8 41.6,18.9 40.9,19.2 40.5,19.5 39.9,19.8 39.5,20.1 39.2,20.5 39.1,20.8 39,21.3 
			38.9,21.6 38.9,22.1 38.9,22.4 38.7,22.7 38.4,23 38,23.3 37.7,23.6 37.5,23.8 37.4,24.2 37.4,24.5 37.5,24.9 37.7,25.1 
			37.7,25.3 37.4,25.7 37.2,25.9 37.1,26.2 		"/>
		<path id="XMLID_6_" class="st3" d="M36.7,25.9l-0.2-0.3l-0.1-0.1l-0.2-0.3L36,25l-0.5,0.1L35,25.2l-0.5,0.1l-0.9-0.2l-0.8-0.7
			l-0.4-0.7l-0.3-0.6l-0.2-0.4l-0.1-0.5l0.1-0.7l0.1-0.6l0.1-0.4l0.1-0.4l-0.1-0.7v-0.5v-0.5l0.3,0.1l0.2,0.1l0.3,0.2l0.2,0.2
			l0.1,0.1h0.4l0.6,0.1l0.3,0.1l0.4,0.1l0.3,0.2l0.3,0.3l0.3,0.3l0.3,0.3l0.3,0.4l0.3,0.3l0.3,0.4l0.2,0.4l0.1,0.4v0.4l-0.2,0.4
			L37,23.6c0,0-0.1,0.3-0.2,0.3l-0.2,0.2l0.1,0.3l0.2,0.3l0.3,0.5l0.1,0.3l-0.1,0.2L36.7,25.9z"/>
		<polygon id="XMLID_5_" class="st3" points="24.3,51 24.4,51.2 24.5,51.7 24.4,52.1 24.2,52.3 24,52.6 23.9,52.9 23.5,53.3 
			23.2,53.5 22.9,53.7 22.4,53.7 22.1,53.7 21.8,53.7 21.3,54.1 20.8,54.5 20.5,54.7 20.1,54.7 19.7,55 19.3,55.3 18.9,55.9 
			18.8,56.1 18.6,55.9 18.3,55.4 18.1,55.1 18,54.7 17.9,54.4 17.9,54 17.9,53.5 17.9,52.6 18,52.2 18.2,51.6 18.5,51.3 18.9,51.1 
			19.1,50.9 19.5,50.4 20,50.1 20.5,49.8 21,49.7 21.5,49.7 22.1,49.7 22.7,49.8 23.2,50.1 23.6,50.3 23.8,50.5 24,50.7 24.2,50.4 
			24.5,50.4 24.5,50.5 		"/>
		<polygon id="XMLID_10_" class="st3" points="25.6,49.1 25.5,48.5 25.5,48.1 25.5,47.8 25.5,47.4 25.5,47 25.8,46.6 25.9,46.3 
			26,46 26.3,45.7 26.4,45.4 26.6,45.2 26.9,44.9 27.2,44.6 27.5,44.2 27.8,43.9 28,43.6 27.9,44 27.9,44.4 28,44.7 28.1,45.1 
			28.2,45.4 28.3,45.8 28.4,46.3 28.4,46.8 28.3,47.2 28.2,47.6 28,47.9 27.7,48.4 27.3,48.7 27,48.9 26.6,49 26.3,49.1 26.1,49.4 
			25.7,49.3 		"/>
		<path id="XMLID_9_" class="st3" d="M16.2,38.6l-0.3,0.2l-0.3,0.3l-0.4,0.3l-0.4,0.2l-0.5,0.2h-0.8l-0.6,0.1h-0.5l-0.5-0.1
			l-0.5-0.2L10.6,39L10,38.4l-0.7-0.5l-0.7-0.5l-0.4-0.5l-0.5-0.2l-0.1-0.5l-0.4-0.4L7,35.4V35l-0.5-0.7c0,0-0.2-0.5-0.3-0.6
			s-0.3-0.5-0.3-0.5l-0.1-0.6v-0.5L6,31.9v-0.5v-0.3v-0.3l0.1-0.2l0.2,0.1l0.2,0.2h0.4l0.2,0.2l0.3,0.2l0.1,0.3c0,0,0.1,0.2,0.2,0.2
			L8,32l0.3,0.1h0.4l0.2,0.2L9,32.5h0.3H10l0.1,0.1l0.2,0.2l0.3,0.3l0.4,0.2l0.5,0.3l0.6,0.1h0.4l0.4,0.1l0.4,0.2l0.4,0.2l0.7,0.4
			l0.7,0.5l0.5,0.4l0.5,0.4l0.4,0.4l0.2,0.3v0.5v0.6V38l0.3,0.1l0.4,0.2l0.4,0.1l0.4,0.2l0.1,0.1l0.1,0.1l-1,0.2L17,38.9l-0.4-0.1
			l-0.3-0.2L16.2,38.6z"/>
		<polygon id="XMLID_12_" class="st3" points="35.2,30.7 35.3,30.4 35.2,30 35.2,29.8 35.1,29.4 34.8,29.1 34.5,28.8 34.2,28.6 
			33.9,28.5 33.5,28.6 33,28.3 32.4,28.4 31.9,28.5 31.5,28.7 31.1,29 30.9,29.3 30.9,29.6 31.1,29.6 31.5,29.7 31.6,29.6 
			31.7,29.8 31.8,30 32.1,30.1 32.3,30.3 32.6,30.3 32.7,30.4 32.8,30.6 33,30.9 33.4,30.9 33.7,31.1 34.1,31.2 34.7,31.2 
			35.1,30.9 		"/>
		<path id="XMLID_11_" class="st3" d="M19,10.4l-0.4,0.2l-0.3,0.2l-0.4,0.1h-0.6L15.9,11l-0.8-0.2l-0.5-0.2L14,10.4l-0.5-0.1
			L13.2,10l-0.5-0.6l-0.4-0.2V8.8l-0.2-0.5L12,8.1l-0.2-0.5l-0.2-0.4V6.9l-0.3-0.5L11,5.8l0.1-0.6l0.1-0.6l0.1-0.4L11.5,4l-0.1-0.3
			V3.1l0.1-0.3l0.2-0.4l0.2-0.2l0.3-0.4l0.3-0.4L12.8,1l0.3-0.3l0.2-0.2l0.2-0.3l0.1,0.2l0.1,0.3L13.9,1L14,1.3l0.2,0.3l0.2,0.5
			l0.2,0.3l0.2,0.3L15,2.9L15.3,3l0.2,0.1h0.3H16v0.2v0.3l0.1,0.2l0.2,0.3l0.1,0.1l0.4,0.4l0.3,0.3c0,0,0.1,0.1,0.2,0.1
			s0.4,0.2,0.4,0.2l0.4,0.3l0.3,0.1l0.3,0.3l0.2,0.3l0.4,0.4l0.1,0.3l0.4,0.4l0.1,0.4L20,8l0.1,0.3v0.4L20,9l-0.1,0.3l0,0.3
			l-0.3,0.3l-0.2,0.2l0.1,0.2l0.2,0.2v0.2l-0.1,0.1h-0.2l-0.2-0.1L19,10.4z"/>
		<path id="XMLID_14_" class="st3" d="M20.2,10.8l0.1,0.2l0.5-0.1l0.2,0.3l0.2,0.3l0.2,0.3l0.3,0.4l0.2,0.2l0.2,0.3l0.3,0.1l0.4,0.1
			l0.3-0.2l0.1-0.2l0.2-0.3l0.3-0.4v-0.6l0.1-0.4l0.1-0.3l0.1-0.4c0,0,0.2-0.6,0.2-0.7l0.2-0.6l0.1-0.3l0.1-0.3l-0.1-0.3l-0.2-0.3
			l-0.1-0.4L24.3,7V6.7c0,0,0.9-0.4,1-0.5c0-0.1,1-0.4,1-0.4V5.3L25.4,5l-0.5-0.3c0,0-0.3-0.3-0.3-0.4s-0.4-1-0.4-1L24,2.9l-0.4-0.4
			l-0.3,0.1l-0.1,0.8L23,3.9l-0.3,0.5c0,0-0.3,0.4-0.4,0.4s-0.5,0.3-0.5,0.3s-0.3,0.2-0.4,0.2l-0.5,0.6c0,0-0.1,0.3-0.1,0.5
			c-0.1,0.1-0.2,0.3-0.2,0.3l-0.1,0.4l-0.1,0.5v0.5v0.4l0.1,0.6l0.1,0.6v0.4v0.3L20.2,10.8z"/>
		<path id="XMLID_13_" class="st3" d="M16.1,91.9l0.2-0.2v-0.4L16.2,91l0.3-0.2l0.3-0.2l0.3-0.3l0.5-0.3l0.2-0.2l0.5-0.3l0.2-0.4
			l0.2-0.5l0.1-0.4l0.1-0.6l0.1-0.3c0,0,0-0.4,0-0.5s0-0.6,0-0.6l-0.1-0.4l-0.2-0.5l-0.3-0.2l-0.1-0.3v-0.4v-0.3l-0.1-0.2
			c0,0-0.1-0.3-0.1-0.4S18,83.2,18,83.2l-0.3-0.5l-0.3-0.4l-0.2-0.2l-0.5-0.2l-0.3-0.1c0,0-0.3-0.1-0.3-0.2l-0.3-0.3l-0.1-0.2
			l-0.4,0.2L15,81.1l-0.5-0.2h-0.4l-0.7-0.1l-1,0.2l-0.2,0.1v0.3l-0.1,0.2l0.3,0.2l0.2,0.3l0.2,0.6l0.1,0.5l0.1,0.4l-0.1,0.3
			l-0.2,0.2l-0.3,0.3v0.3c0,0,0.6,0.4,0.6,0.5c0,0,0,0.1,0,0.2c0,0,0,0.2,0.1,0.3c0,0.1,0,0.7,0,0.7l0.1,0.7L13,87.6l-0.1,0.6
			l0.2,0.3v0.4c0,0,0.1,0.4,0.1,0.5l0.3,0.3c0,0,0.1,0.3,0.2,0.4c0.1,0.1,0.2,0.5,0.2,0.5s0.2,0.2,0.3,0.2l0.3,0.2l0.4,0.1l0.2,0.1
			l0.4,0.1l0.1,0.2L16.1,91.9z"/>
		<polygon id="XMLID_15_" class="st3" points="11.7,95.3 11.4,95 11.1,94.8 11.5,94.5 11.8,94 12,93.6 12.2,93.3 12.3,93 12.5,92.7 
			12.5,92.3 12.4,91.3 12,91 11.7,90.9 11.1,90.9 10.5,90.8 10.1,90.9 9.8,91.1 9.1,91.1 7.9,91.1 7.4,91.4 6.6,91.6 5.7,91.9 
			5.2,92.4 4.7,92.8 4.1,93.1 3.1,93.6 2.5,93.9 1.9,94.4 1.2,94.8 0.5,95.5 0.1,95.8 0,96.2 0.3,96.3 0.8,96.2 1.3,96.1 2.1,96.2 
			2.7,96.4 3.4,96.5 4,96.9 4.5,97.1 5,97.4 6,97.5 6.8,97.3 7.5,97 8.4,96.6 9.4,96 10.4,95.4 10.7,95.1 11.2,95.3 		"/>
		<polygon id="XMLID_17_" class="st3" points="63.7,85 63.9,85.3 64.2,85.6 64.3,85.8 64.4,85.4 64.7,85.2 65.2,84.8 65.7,84.9 
			66.2,84.8 66.5,84.9 66.6,85.2 67.3,85.2 68.1,85.2 68.2,85.5 68.5,85.7 69.5,86.3 70.2,86.8 70.8,87.3 71.8,88.3 72.5,89.1 
			73.2,89.8 73.8,90.6 74.4,91.3 74.4,91.3 73.2,91.6 71.6,91.8 70.8,91.9 70.5,91.6 68.9,91.6 67.7,91 66.5,90.3 65.4,89.1 
			64.9,87.8 64.5,86.7 64,86.3 63.5,85.7 63.5,85.3 		"/>
		<polygon id="XMLID_18_" class="st3" points="64,84.5 64.8,83.7 65.4,83.1 65.8,82.8 66.1,82.9 66.7,83.2 67.3,83.4 68.1,83.5 
			68.8,83.5 69.4,83.2 70.1,82.6 70.7,82 71.2,81.5 71.5,81 72,80.3 72.4,79.9 72.4,79.5 72.3,79 72.5,78.7 72.7,78.3 72.6,77.6 
			72.6,77.1 72.9,76.8 73.6,75.4 70.5,75.4 68,75.6 67.4,75.9 66.5,76.4 65.6,77 64.8,77.6 64.2,78.4 64.1,79 64,79.8 64.1,80.4 
			64.6,81.4 65,81.9 65.1,82.2 63.7,83.8 63.6,84.1 63.8,84.6 		"/>
		<path id="XMLID_8_" class="st3" d="M28.1,49.5L28,49.9l-0.1,0.3v0.2l0.2,0.1l0.4,0.2l0.3,0.2l0.1,0.2l0.2,0.5V52v0.3
			c0,0,0.1,0.2,0.1,0.3c0,0.1,0.1,0.5,0.1,0.5l-0.1,0.3l-0.3,0.3v0.5l0.1,0.4L28.9,55v0.4v0.2L28.8,56v0.4l0.1,0.3l0.1,0.4v0.4
			l-0.1,0.4l-0.1,0.2L28.5,58l-0.6-0.1l-0.6-0.4L27,57.2l-0.4-0.6l-0.2-0.4l-0.2-0.3L26,55.5L25.8,55l-0.1-0.5l-0.1-0.4l-0.1-0.5
			v-0.7l0.1-0.8l0.2-0.6l0.2-0.2l0.4-0.3l0.3-0.2l0.4-0.2l0.2-0.3l0.1-0.3l0.1-0.3l0.2-0.3L28.1,49.5z"/>
		<path id="XMLID_16_" class="st4" d="M66.1,86.5l0.2,0.3l0.7,0.3l0.4,0.2l0.4-0.8l0.2-0.4l0.3-0.4l0.2-0.1l0.3,0.2l-0.2,0.5
			l-0.3,0.5l0.2,0.1l0.3-0.3l0.3-0.2l0.4-0.2l0.3,0.1l0.3,0.4L69.9,87l-0.6,0.2h-0.6l-0.5,0.2l-0.1,0.2l0.5,0.3l0.5,0.3l0.5,0.3
			l0.2,0.1h0.6l0.3-0.3l0.2-0.2h0.2l0.2,0.2l-0.2,0.4l-0.4,0.4l0.6,0.6l0.2,0.2l0.4,0.2l0.3,0.2l0.4,0.2l0.7,0.1l0.5,0.4l0.5,0.3
			h-0.5L73,91.1l-0.6-0.4l-0.8-0.5l-0.5-0.3l-0.5-0.5l-0.5-0.5l-0.5-0.1L69,88.6l-0.5-0.3l-0.3-0.1v0.4l0.3,0.3l0.5,0.4l0.7,0.4
			l0.5,0.3l0.4,0.2l0.2,0.3l0.2,0.4l0.2,0.3v0.2l0,0l-0.4-0.3l-0.5-0.3l-0.5-0.4l-0.5-0.5l-0.5-0.2l-0.3-0.2l-0.3-0.2l-0.4-0.5
			l-0.4-0.5V88v-0.1l-0.2-0.1l-0.4-0.2l-0.4-0.2L66,87.2l-0.3-0.1h-0.3v0.4l0.4,0.5l0.4,0.3c0,0,0.6,0.4,0.6,0.5s0.3,0.4,0.3,0.4
			l0.3,0.5l0.5,0.5l0.3,0.2l0.4,0.2l0.2,0.2l0.3,0.3l0.1,0.3l-0.3-0.2l-0.2-0.1l-0.4-0.2l-0.4-0.3l-0.3-0.3L67.2,90l-0.3-0.3
			l-0.4-0.4l-0.3-0.4l-0.3-0.3l-0.3-0.4l-0.3-0.4l-0.1-0.3l-0.1-0.2l-0.2,0.1l-0.2-0.3l-0.1-0.3l0.3-0.2l-0.8-0.4l-0.2-0.1l-0.4-0.5
			l-0.1-0.3c0,0,0.3,0,0.4,0.1s0.3,0.3,0.3,0.3l0.3,0.2l0.2-0.2l0.5,0.6h0.3l0.2-0.4c0,0,0.1-0.4,0.1-0.5c0-0.1,0.1-0.3,0.1-0.3
			L66,85l0.3-0.1l0.1,0.6h0.2c0,0,0.4,0,0.5,0s0.5,0,0.5,0l0.4,0.1l-0.1,0.5l-0.5,0.5h-0.5l-0.7-0.3L66.1,86.5z"/>
		<path id="XMLID_7_" class="st4" d="M71.3,81.4L71.1,81l-0.5-0.3l-0.3-0.2l-0.2-0.1h-0.4l-0.4-0.1h-1.1l0.2-0.4l0.3-0.4l0.1-0.3
			l0.3-0.2l0.2-0.2c0-0.1,0.3-0.1,0.3-0.1l0.1-0.5l0.3-0.6h0.9l0.4,0.7l0.7,0.2h0.1l-0.3-0.1l-0.2-0.2l-0.7-0.1L70.4,78H70l0.2-0.1
			l0.6-0.2c0,0,0.4-0.1,0.4-0.2l0.4-0.2l0.3-0.2c0,0,0.2-0.1,0.3-0.1c0.1,0,0.2-0.1,0.2-0.1l0.1-0.2l0.1-0.3l0.1-0.2l-0.8,0.2
			l-0.6,0.2c0,0-0.3,0-0.4,0s-0.5,0.3-0.5,0.3l-0.2,0.3l-0.3,0.2l-0.1,0.1l-0.1-0.2v-0.6v-0.4v-0.4l-0.2-0.2h0.8h1v0.6l-1.4,0.2
			l-0.5,0.6l-0.2,0.4v0.2l-0.3,0.2l-0.4,0.3l-0.1,0.4l-0.2,0.3l-0.3,0.4l-0.3,0.3l-0.2-0.2l-0.3-1L67,78l-0.1-0.5L66.8,77l-0.1-0.4
			l0.1-0.3l-0.6,0.3L66,76.7c0,0,0.2,0.2,0.2,0.3s0.1,0.7,0.1,0.7l0.1,0.5c0,0,0.1,0.5,0.1,0.6s0.2,0.6,0.2,0.6l0.2,0.4l0.2,0.1
			l-0.7,0.8l-0.5,0.7l-0.4,0.3l-0.3,0.2H65L64.9,82l0.1,0.2v0.4l-0.2,0.3l-0.3,0.2l-0.4,0.4l-0.4,0.4l0.1,0.3l0.4-0.3l0.3-0.4
			l0.5-0.2l0.5-0.4l0.3-0.2l0.2,0.1l0.1-0.3l0.4-0.6l0.7-0.9l0.3-0.4l0.1-0.2l0.3,0.2l0.6,0.1h0.6h0.5H70l0.3,0.3l0.3,0.2l0.3,0.5
			L71.3,81.4z"/>
		<polygon id="XMLID_19_" class="st4" points="6,30.8 6.1,31.2 6.4,31.6 6.6,32.2 6.8,32.7 7.3,33.5 7.7,33.9 8.2,34.4 8.6,34.9 
			9,35.3 8.5,35.4 7.8,35.4 7.2,35.6 7.1,35.6 7.4,35.6 7.7,35.6 8.1,35.6 8.4,35.6 8.7,35.6 9,35.5 9.3,35.6 10.3,36.3 9.8,36.5 
			9.2,36.5 8.8,36.6 8.3,36.6 7.9,36.6 7.9,36.7 8.1,36.8 9.2,36.7 9.7,36.7 10.2,36.6 10.6,36.5 11,36.6 11.7,36.9 12.3,37.1 
			12.6,37.1 11.6,37.3 10.8,37.3 9.8,37.5 8.9,37.5 9.1,37.7 10.2,37.6 11,37.6 12.5,37.4 12.9,37.3 13.5,37.6 14.6,38 14,38.2 
			13.2,38.4 12.3,38.6 11.4,38.7 10.8,38.8 11.1,38.9 11.7,38.9 12.5,38.8 13.2,38.8 14,38.6 14.7,38.3 15.1,38.4 15.7,38.5 
			16.2,38.5 16.6,38.6 17.1,38.8 17.4,38.9 17.9,38.8 18.2,38.8 17.7,38.4 17.2,38.1 16.7,38 16.3,38 15.8,38 15.2,37.8 14.9,37.7 
			14.7,37.1 14.4,36.5 14,36 13.6,35.3 13.1,34.7 12.8,34.2 12.5,34.1 12.8,34.4 13.3,35 13.9,36 14.6,37.3 14.7,37.6 14.2,37.4 
			13.2,37 12.8,36.3 12.1,35 11.7,34.1 11.4,33.7 11.4,33.9 11.8,34.5 12.3,35.6 12.8,36.5 13,36.9 12.7,36.8 12,36.5 11.3,36.2 
			11,35.5 10.9,35 10.7,34.1 10.7,33.7 10.5,33.3 10.6,33.7 10.7,34.3 10.8,35.2 11,35.8 11.2,36.2 10.7,35.9 10.3,35.6 9.6,35.2 
			9.7,35 9.6,34.6 9.6,34.3 9.4,34.1 9.4,34.4 9.5,34.8 9.5,35 9.2,34.8 8.5,34.3 8.4,34 8.1,33.5 7.4,32.7 7.1,32.1 7,31.8 
			6.8,31.3 6.6,31 6.3,30.8 		"/>
		<path id="XMLID_20_" class="st4" d="M12.1,7.4l0.4,0.3l0.4,0.2L13.3,8l0.4,0.1l0.4,0.1l0.5,0.1l0.6,0.1h0.4l0.5,0.1l0.4,0.4
			L17,9.2l0.8,0.4l-0.3,0.1H17h-0.4h-0.7l-0.8-0.1l-1-0.3l-0.5-0.2l-0.7-0.2l-0.5-0.1l0.7,0.3l0.5,0.2l1,0.3l0.9,0.2l1.2,0.1
			l1.4,0.1l0.6,0.3l0.4,0.2l0.3-0.3l-0.8-0.5l0.1-0.5l0.1-0.4l0.1-0.5l0-0.7l0.2-0.5l0.3-0.5V6.4l-0.3-0.3l-0.3,0.1l-0.2,0.4
			l-0.1,0.6l-0.2,0.6l-0.1,0.7l-0.1,0.4l-0.4-0.3l-0.4-0.4L17,7.8l-0.3-0.3V7l0.2-0.4l0.2-0.2l0.2-0.2L17.6,6l0.3-0.2l0.3-0.2
			l-0.1-0.2l-0.3-0.2l-0.4,0.1l-0.3,0.4L16.7,6l-0.3,0.5l-0.1,0.3l-0.4-0.2l-0.2-0.3L15.4,6l-0.2-0.2L15,5.5l-0.2-0.3l-0.1-0.3
			l-0.1-0.3V4.3V3.9l0.1-0.3l0.1-0.3L15,3.1l0.3-0.2l0.1-0.1V2.7h-0.2l-0.3,0.1l-0.3,0.1l-0.3,0.2l-0.2,0.3l-0.2,0.2l-0.1,0.1
			L13,3.6l-0.8-0.2V3.2l0.7-0.3l0.3-0.3l0.2-0.4l0.1-0.3l0.1-0.3l-0.1-0.2V1.3l0.1-0.2l0.1-0.2V0.7l-0.1-0.2l-0.2-0.3V0l-0.1,0.1
			l-0.1,0.2l-0.1,0.3v0.3l0.1,0.3l-0.1,0.2l-0.2,0.3l-0.3,0.1l-0.3,0.3V2v0.7v0.2V3v0.6v0.5v0.3l0.4,0.3l0.4,0.2h0.6H14l0.2,0.2v0.5
			v0.3l-0.1,0.3l0.1,0.4l0.1,0.2L14.5,7l0.3,0.1L15,7.2l0.1,0.1L15,7.4h-0.4h-0.3l-0.7-0.1L13,7.2h-0.3c0,0-0.2,0-0.3,0l-0.3-0.1
			L11.9,7l-0.1,0.1l-0.1,0.2L12.1,7.4z"/>
		<path id="XMLID_22_" class="st4" d="M20.3,10.6l0.3-0.4l0.2-0.3V9.5l0.1-0.8L21,7.5v-1V6.1l0.2-0.3v0.5v0.4v0.4v0.6v0.6v1v0.3v0.2
			l0.1-0.2l0.3-0.4l0.3-0.4l0.4-0.5L22.5,8l0.2-0.3L23,7.2L23.1,7L23,6.7l-0.2-0.2l-0.1-0.2V6.1V5.8V5.4V5.1V4.9V4.7V4.5V4.4
			l0.1-0.1v0.2V5l-0.1,0.7l0.1,0.4L23,6.2l0.1,0.1l0.2,0.3V6.3V5.8V5.3V4.9V4.5l0.5-0.4c0,0,0.5-0.2,0.5-0.3s0-0.8,0-0.8l-0.5-0.3
			l-0.2-0.2v0.2v0.4l0.1,0.4l0.1,0.3L24,4.5l0.1,0.3l0.1,0.3l-0.1,0.6c0,0,0,0.3,0,0.4S24,6.5,24,6.5l-0.1,0.4l-0.1,0.4l-0.2,0.3
			l-0.4,0.6l-0.5,0.5l-0.2,0.2h0.2L23,9l0.3,0.1l0.2,0.1l-0.1,0.2c0,0-0.2,0-0.3,0S23,9.3,22.9,9.3s-0.8,0-0.8,0h-0.2l-0.1,0.1
			l-0.2,0.2L21,9.9l-0.2,0.3l-0.2,0.2L20.3,10.6l-0.2,0.1L20,10.5L20.3,10.6z"/>
		<path id="XMLID_21_" class="st4" d="M36.7,25.4l-0.3-0.6l-0.2-0.4l0.1-0.4l-0.4,0.1l-0.4-0.3l-0.3-0.4l-0.3-0.3l0.1-0.4l0.2-0.4
			l0.2-0.6v-0.4l0.1-0.3l0.1-0.4l-0.4,0.1L35,20.9l-0.2,0.6V22l-0.1,0.4l-0.4-0.3l-0.2-0.3l-0.2-0.3v-0.2L34,21l0.1-0.2v-0.2v-0.3
			v-0.4l-0.2,0.2l-0.1,0.4l-0.1,0.4l-0.2-0.2l-0.1-0.3l-0.1-0.2L33.2,20l-0.1-0.2l-0.3-0.2l0.1,0.4l0.1,0.3l0.1,0.3l0.1,0.3l0.1,0.3
			L33,21.4h-0.3l-0.5-0.1L32,21.4l0.2,0.1l0.4,0.1l0.3-0.1h0.3h0.1l0.1,0.2l0.1,0.2l0.2,0.2l0.2,0.2l0.2,0.2l0.1,0.1L34,22.7h-0.3
			l-0.4,0.1h-0.4h-0.3l-0.3-0.1l-0.2-0.1L32,22.8l0.1,0.3l0.2,0.2l0.2,0.5l0.4,0.8H33c0,0,0.6,0,0.7,0h0.4l0.3-0.6l0.2-0.3h0.1
			l0.2,0.2l0.2,0.3l0.3,0.3l0.2,0.2l0.2,0.2l0.1,0.2l0.2,0.2l0.2,0.2l0.2,0.2h0.1L36.7,25.4L36.7,25.4z"/>
		<path id="XMLID_23_" class="st4" d="M39.7,24.6h0.7l0.5,0.2l0.6,0.1l0.4,0.1l0.6,0.1h0.3L43,25l0.1-0.2v-0.2h-0.2l-0.5-0.1
			l-0.8-0.1h-0.4H41c0,0,0.3-0.1,0.3-0.2l0.2-0.2l0.3-0.2l0.1-0.2l0.1-0.2l0.1-0.1l0.2-0.1l0.2,0.1h0.3l0.2-0.2l0.1-0.3l0.1-0.4
			l0.2-0.5l0.1-0.5l0.2-0.5c0,0,0-0.4,0-0.5v-0.6h-0.3L43.2,20v0.6l-0.1,0.6L42.9,22l-0.4,0.2l-0.2,0.1h-0.2l-0.3,0.2l-0.2,0.3
			l-0.4,0.5l-0.3,0.3l-0.4,0.3L40,24l-0.4,0.4l-0.1,0.2L39.7,24.6z"/>
		<polygon id="XMLID_24_" class="st4" points="41.4,21.3 41.6,21.3 41.7,21.2 41.7,20.9 41.8,20.6 41.9,20.3 42,20 42,19.7 
			42.1,19.5 42.1,19.3 42.1,19 42,19 41.6,19.1 41.3,19.2 41.3,19.5 41.3,19.9 41.2,20.7 41.3,21.2 		"/>
		<path id="XMLID_25_" class="st4" d="M44.7,22.2h0.2l0.1,0.1l0.3,0.1l0.2,0.1h0.2l0.1-0.2l-0.2-0.1l-0.3-0.1L45.1,22L45,21.8v-0.1
			l0.1-0.2h0.3h0.2h0.3h0.4c0,0,0.2-0.1,0.3-0.1l0.2-0.1l0.3-0.2l0.2-0.2l0.2-0.2l0.2-0.1l0.1-0.1h-0.3l-0.2,0.1L47,20.8
			c0,0-0.3,0.1-0.4,0.1l-0.3,0.2c0,0-0.3,0-0.4,0l-0.3-0.2l-0.1-0.2h-0.3L45,20.8L44.6,21l-0.1,0.2v0.4v0.3L44.7,22.2z"/>
		<path id="XMLID_27_" class="st4" d="M37.6,25.8h0.2l0.2-0.1h0.2l0.2-0.1h0.2l0.2-0.1c0,0,0.1-0.1,0.1-0.2S38.8,25,38.8,25h-0.2
			v-0.3c0,0,0-0.2,0-0.3s-0.1-0.2-0.1-0.2s-0.2,0.1-0.2,0.2s0,0.4,0,0.4L38.2,25L38,25.2l-0.3-0.1l-0.2,0.3L37.6,25.8z"/>
		<polygon id="XMLID_28_" class="st4" points="35.1,30.5 34.8,30.3 34.4,30 34.1,29.7 33.6,29.5 33.2,29.3 32.7,29.2 32.1,29.1 
			31.5,29 31.1,29.2 31.1,29.4 31.8,29.3 32.3,29.3 32.7,29.5 33.3,29.6 33.8,29.8 34.3,30.2 34.7,30.4 34.9,30.6 		"/>
		<path id="XMLID_26_" class="st4" d="M37.4,31.2l1.2-0.2l0.1-0.4l0.1-0.5L39,30h0.2h0.2h0.4h0.3l-0.7,0.4v0.4l0.2,0.2h0.8l0.4-0.1
			v-0.5l0.2-0.3l0.4,0.1l0.4-0.3v-0.3h0.8l0.2,0.5l0.5,0.4l0.2-0.2l0.3-0.6h0.5l-0.3,1l-0.2,0.6l-0.4,0.2l-0.3,0.1l-0.6-0.1
			c0,0-0.3,0-0.4,0.1c-0.2,0.1-0.7,0.1-0.8,0.1s-0.7-0.1-0.7-0.1h-1l0.3,0.3l0.9,0.3l0.5,0.1h0.4l0.6,0.2l0.3,0.2l-0.9-0.1l-2-0.5
			L39,31.7h-0.4l-0.9-0.1l-0.4,0.1l0.4,0.3l0.7,0.4l1,0.4c0,0,0.5,0.1,0.9,0.2c0.3,0.1,0,0.2,0,0.2l-0.9-0.1l-0.9-0.2l-0.4-0.2
			c0,0-0.4-0.2-0.5-0.3S37,32,37,32l-0.3-0.2l-0.6-0.1l0.5-0.3l0.3-0.6l0.4-0.3l0.4-0.3H38l-0.2,0.3l-0.3,0.4l-0.2,0.6L37.4,31.2z"
			/>
		<polygon id="XMLID_30_" class="st4" points="28.1,49.6 27.9,50 28.2,50.4 28.4,50.9 28.4,51.2 28,51.5 27.7,51.9 27.6,52.4 
			27.4,52.7 27.8,53 28.2,53.3 28.5,53.6 28.8,53.9 29,54.4 28.8,54.5 28.5,54.2 28.1,53.8 27.7,53.5 27.4,53.2 27.3,53.6 
			27.5,54.3 27.6,54.9 27.7,55.5 27.8,56 28,56.3 28.3,56.6 28.5,57 28.7,57.3 28.8,57.5 28.7,57.7 28.4,57.5 28.1,57.1 27.8,56.6 
			27.6,56.2 27.3,55.9 27.2,55.5 27.2,55.2 27.1,54.8 27,54.1 27.1,53.3 26.8,53.5 26.6,54.1 26.3,54.5 26.2,54.9 25.9,54.9 
			26.1,54.5 26.2,54.1 26.4,53.7 26.6,53.3 26.9,52.9 27,52.7 27.1,52.4 27.2,51.5 27.4,50.8 27.4,50.4 27.5,50 27.7,49.7 		"/>
		<polygon id="XMLID_29_" class="st4" points="24,51.1 23.5,51.3 23.3,51.5 23.3,52.1 23.3,52.9 23,53.3 22.6,53.3 22.9,53 23,52.6 
			23,51.9 23.1,51.4 22.7,51.7 22.1,52 21.8,52.3 21.7,53.1 21.6,53.6 21.4,53.7 21.4,53.3 21.5,52.8 21.6,52.4 21.2,52.6 
			20.7,52.8 20.2,53.2 19.9,53.6 19.5,53.7 19.3,54.2 19.2,54.8 19,55.4 18.9,55.7 18.7,55.4 18.8,54.9 18.8,54.2 19.1,53.7 
			19.2,53.4 19.5,53 19.8,52.6 20.4,52.2 20.9,52.1 21.4,51.8 21.1,51.7 20.4,51.6 20,51.5 19.7,51.4 19.4,51.2 19.4,51 19.8,50.9 
			20.1,51 20.7,51.2 21.8,51.2 22.2,51.3 22.5,51.2 23.1,50.9 23.6,50.7 23.9,50.6 24.2,50.7 24.2,50.9 		"/>
		<polygon id="XMLID_31_" class="st4" points="26,48.2 26.3,48.1 26.6,47.8 26.9,47.3 27.1,46.7 27.1,46.1 27,45.6 27.2,45.3 
			27.4,44.9 27.3,44.5 26.9,45.1 26.5,45.7 26.2,46.3 25.9,46.9 25.7,47.5 25.8,47.8 		"/>
		<path id="XMLID_33_" class="st4" d="M27.3,48.6c0,0-0.2-0.2,0-0.8c0.2-0.6,0.2-0.7,0.3-0.7s0.3-0.3,0.3-0.3h0.3v0.5l-0.8,1.2
			L27.3,48.6z"/>
		<path id="XMLID_32_" class="st4" d="M16.4,87.9l0.2-0.3l0.2-0.3l0.3-0.5l0.2-0.4l0.2-0.4l0.2-0.4l0.3-0.5l0.1-0.2l0.2-0.2l0.1-0.2
			v-0.4l-0.3,0.2l-0.4,0.3l-0.2,0.6l-0.2,0.4l-0.4,0.6l-0.3,0.3l-0.2,0.4l-0.2,0.2l-0.1-0.4v-0.4v-0.6L16,85.4L15.8,85l-0.3-0.3
			l0.1-0.3l0.1-0.4l-0.1-0.5l-0.3-0.3L15,82.8l-0.4-0.4l-0.2-0.3l-0.3-0.3l-0.4-0.2l-0.4-0.3L13,81.1L12.5,81h-0.3v0.2l0.3,0.4
			l0.4,0.2l0.4,0.3l0.3,0.5l0.4,0.5l0.3,0.4l0.1,0.6l-0.2,0.5h-0.3l-0.4-0.5L13.2,84h0.3l0.4,0.1l0.5,0.3l0.2,0.3l0.2,0.5
			c0,0.1,0.3,0.5,0.3,0.5s0.1,0.4,0.2,0.5c0,0.1,0.1,0.4,0.1,0.5s0,0.3,0,0.3l-0.5-0.2l-0.5-0.4L14,86.2l-0.5,0.1l0.4,0.1l0.3,0.2
			l0.4,0.3c0,0,0.2,0.2,0.3,0.2s0.3,0.2,0.3,0.2l0.1,0.4l0.1,1.1v0.4L15,89l-0.4-0.3l-0.4-0.3l-0.5-0.3L13.3,88v0.3l0.3,0.3l0.6,0.2
			l0.3,0.3l0.5,0.5l0.3,0.3l0.3,0.2v0.6v0.6l0.1,0.2l0.3,0.2l0.2-0.2l0.1-0.4l0.1-0.4v-0.4v-0.4l0.3-0.2l0.2-0.3l0.2-0.3l0.2-0.3
			l0.2-0.5l0.3-0.5l0.3-0.5l0.3-0.4l0.2-0.5l0.2-0.4l0.1-0.3l-0.2-0.4l-0.1,0.5l-0.3,0.4c0,0.1-0.3,0.7-0.3,0.7l-0.6,0.9L17,88.6
			l-0.4,0.5l-0.2,0.2V89v-0.8V87.9z"/>
		<path id="XMLID_34_" class="st4" d="M11.5,95.2l-0.4-0.3l-0.2-0.1l0.2-0.2l0.2-0.2l0.2-0.4l0.2-0.5l0.2-0.5l0.1-0.5v-0.3v-0.4
			l-0.1-0.3l-0.1-0.3l-0.2-0.1v0.3l0.1,0.6v0.4l-0.1,0.4l-0.2,0.5L11.1,94l-0.2-0.1l-0.2-0.3h0.1l-0.6,0.5H9.9H9.5L9.1,94l-0.6-0.2
			l-0.2-0.1h0.1l0.4-0.1H8.6l0.6-0.2l0.2-0.5v-0.5l-0.2-0.5l-0.1-0.3H8.6l-0.3,0.1H7.8l-0.5,0.1c0,0-0.6,0.1-0.7,0.2
			c-0.1,0-0.5,0.2-0.5,0.2l-0.2,0.1c0,0,0.3,0.1,0.4,0.1s0.6,0.1,0.7,0.2c0.1,0,0.4,0.2,0.5,0.2s0.3,0.1,0.3,0.1l-0.1,0.3
			c0,0-0.3,0.1-0.4,0.1s-0.4,0-0.6-0.1s-0.7,0-0.7,0l-0.4-0.1L5.1,93l-0.6,0.2l-0.6,0.2l-0.5,0.2c0,0-0.4,0.3-0.6,0.4
			c-0.1,0-0.6,0.4-0.6,0.4l-0.3,0.3l0,0.1l-0.2,0.3H2l0.4-0.2c0,0,0.5-0.2,0.5-0.3s0.5-0.3,0.5-0.3S3.9,94,4,94s0.7-0.2,0.8-0.2
			s0.4,0,0.4,0L5.4,94L5,94.4c0,0-0.3,0-0.5,0.1C4.4,94.6,3.9,95,3.9,95s-0.4,0.6-0.5,0.6s-0.6,0.2-0.6,0.2L2.7,96
			c0,0,0.5,0,0.7-0.2C3.6,95.7,4,95.4,4,95.4l0.5-0.3L4.9,95l0.3-0.4l0.4-0.3L7,94.2h0.4l0.7,0.1l-0.3,0.3l-0.9,0.6l0.4-0.1l0.5-0.2
			l0.4-0.3l0.4-0.1l0.5,0.1l0.3,0.1l0.3,0.1h0.1L9.7,95l-1.1,0.4l-1,0.6l-0.7,0.3l-0.8,0.5L6.2,97l0.4-0.1c0,0,0.5-0.1,0.6-0.2
			c0.1,0,1-0.4,1-0.4L8.7,96l0.5-0.2l0.5-0.3l0.5-0.3l0.3-0.1h0.7L11.5,95.2z"/>
		<polygon id="XMLID_36_" class="st4" points="4,96.6 4.3,96.7 4.7,96.6 5.1,96.4 5.5,96 5.9,95.6 5.6,95.7 5,95.9 4.3,96.3 		"/>
	</g>
</g>
</svg>
