<?xml version="1.0" encoding="utf-8"?>
<!-- Generator: Adobe Illustrator 19.2.1, SVG Export Plug-In . SVG Version: 6.00 Build 0)  -->
<svg version="1.1" id="Слой_1" xmlns="http://www.w3.org/2000/svg" xmlns:xlink="http://www.w3.org/1999/xlink" x="0px" y="0px"
	 viewBox="0 0 74.4 148.9" style="enable-background:new 0 0 74.4 148.9;" xml:space="preserve">
<style type="text/css">
	.st0{display:none;}
	.st1{display:inline;fill:none;enable-background:new    ;}
	.st2{fill:#54320A;}
	.st3{fill:#69E063;}
	.st4{fill:#56D34C;}
</style>
<g id="Слой_1_1_" class="st0">
	
		<image style="display:inline;overflow:visible;" width="500" height="248" xlink:href="C8DF3489.png"  transform="matrix(0.2822 0 0 0.2822 -36.75 36.6812)">
	</image>
	<path class="st1" d="z"/>
</g>
<g id="Слой_2">
</g>
<g id="Слой_3">
</g>
<g id="Слой_4">
	<g id="XMLID_35_">
		<path id="XMLID_3_" class="st2" d="M57.7,148.2l0.3-2.3l-1-3.2l-0.8-3.4l-0.8-3.2l-0.7-2.1l-0.3-1.5v-0.8l1.4-1.9l0.9-1.1l1.1-1.5
			l0.9-1.3l0.6-1.2l1.2-2l0.8-1.3l0.8-1.1l0.6-1.7l0.3-1.4l0.2-1.5l-0.1-1.7l-0.5-2.9l-0.9-3.1l-0.9-2.5v-1.3v-1.6v-1.5l0.4-1.8
			l1.6-4h-0.6L60.9,97l-1.1,2.2l-0.4-0.5l-0.1-2l-0.1-1.5l-0.4-4L58,92.1v3.7L57.9,97l0.2,2.1l0.3,2l0.4,1.5L59,104l0.3,1.3l0.5,1.5
			l0.2,1.4l0.3,1.4l0.4,1.7l0.3,2.6l0.2,2.1l-0.2,1.4l-0.5,1.1l-0.6,0.9l-0.6,1.3l-0.9,1.4l-0.6,1.1l-0.8,1l-0.9,1.3l-0.9,1.3
			l-0.7,0.8l-1.2,0.5l-0.4-0.7l-0.9-2.8l-0.8-2.7l-0.9-2.9l-1.1-2.6l-1.2-3l-2-4.1l-1.3-2.7l-0.8-1.5c0,0-0.8-1.2-0.8-1.3
			s-0.8-1.3-0.8-1.3l-0.7-1.4l-2.4-4.5l-1.3-2.8l-1.2-2.9l-1.3-3.3l-1.3-3.3l-0.7-2.6l-0.5-2.5l-0.3-2.3l-0.1-2.4l0.4-2.1l0.6-3.5
			l0.7-2.4l0.7-2.1l0.9-2.7l0.6-0.9l0.2-1l0.1-0.9l0.6-1.5l1-1.8l0.9-1.7l0.8-1.5l1.1-1l0.9-0.9l0.8-0.9l0.6-0.6l0.6-0.5l1.3,0.5
			l1.9,0.6l1.3,0.8l1.7,0.2L50,50.2l-0.9-0.6l-0.3-0.5l-0.6,0.1l-1.9-0.6l-1.5-0.5l-0.6-0.3l1.2-1.2l0.9-0.8l1.2-1.2l1-0.8l1.2-0.8
			l1.1-0.8l1.3-0.8l1.1-0.6l0.8-0.5l1.3-0.5l1.9-1.1l-1.6-0.2l-1,0.1l-1.4,0.8l-1.9,1l-1.1,0.8L48.8,42l-1.2,0.8l-1.1,0.6l-1.4,1.5
			l-0.8,0.9L43.2,47l-1.1,1.2l-0.9,0.7l-0.9,0.3L40,49l1.5-4.1l0.5-1.6l1.7-6l2.1-8l1.4-3.5l1.3-4l1.1-2.8l0.9-1.1l1-1.9l1.4-2.3
			l1.1-1.8l0.8-1.7l-2.6,2.3l-1,1.2l-1.1,1.5L49,16.3l-0.8,1.4l-0.9,1.9l-2,4.8l-1,2.3l-0.8,2.7l-1.3,3.3l-0.7,2l-0.6,2.1l-0.8-2.1
			L39.6,33l-0.4-1.3l-0.5-1.5l-0.5-1.4l-0.4-1.5L37,25.6l-0.4,0.2l-0.1,1.3L37,28l0.5,1.2l0.5,1.6l0.9,1.6l0.3,1l0.4,1.1l0.2,0.8
			c0,0,0.2,0.5,0.3,0.8c0,0.2,0.3,1.1,0.3,1.1l0.3,0.9l0.2,0.3l-0.6,1.1l-0.9,3.4l-3.2,8.2l-1.4,3.6l-0.7,0.7l-0.6,1.2L33,58
			l-0.8,2.1l-0.9,2.3l-0.8,2.1l-0.6,2.4l-0.8,2.2L28.7,71l-0.2,2.1l-0.2,2.3l0.1,3.3l0.3,2.7l1.5,5.9l1.7,6.1l2.7,7.3l1.3,3.4l1.4,3
			l1.3,2.7l1.3,3.3l-0.7,0.6l-5.2-3l-3-1.3l-3.4-1.9l-2.4-1.4l-2.1-1.1l-0.7-0.7l-0.8-0.4l-0.8-0.6l-0.9-1.1l-1.1-1.3l-0.7-1
			l-0.5-1.1l-0.5-1l-0.2-1.3l-0.6-1.2l-0.4-2.4l-0.7-2.2l-1-2.3l-0.8-1.6l-0.7-1l-1.9-1.9l-0.2,0.5l1,1.7l0.8,1.4l0.5,2.7l0.6,2.4
			l0.4,1.7l0.5,2l0.6,2.1l0.6,2l0.6,1.6l0.9,1.3l1.2,1.3c0,0,1.9,1.8,2.1,1.9c0.2,0.1,3.8,3,3.8,3l0.3,0.7l0.8,0.1l1.8,1.2l1.2,0.8
			l0.9,0.8l1.7,0.7l2.4,1.5l1.8,1l1.1,0.8l1.5,0.9l1.5,1.4l1.1,0.9l1,0.7l1.1,1l0.8,1.4l0.6,1.2l0.5,1.1l0.4,1.2l0.2,0.7l0.4,1.2
			l0.4,1.8l0.4,1.3l0.3,1.4l0.3,2l0.2,2.7l0,1.9l-0.1,1.8v2.3l-0.5,1.4l-0.1,1.7l0.1,1.1h0.9l0.5,0.7l0.4-0.9l0.4-0.8l0.1,1.3
			l0.8-0.2l0.7-0.9l1.1,1.1l0.4-1.5l1,1.6l0.8-1l1,0.9h0.8l0.6-1.1l0.4,0.8H57.7z"/>
		<path id="XMLID_4_" class="st3" d="M29.8,31l0.1-0.2h0.5l0.5-0.2l0.6-0.2l0.5-0.2l0.3-0.1l0.4-0.2l0.3-0.1l1-0.2l1-0.3l1.2,0.1
			h0.5l0.5,0.3l0.4,0.3l0.4,0.8l0.4,0.3L38,31.2l-0.6,0.4l-0.5,0.5l-0.4,0.3l-0.4,0.4L35.6,33l-0.5,0.2l-0.6,0.1c0,0-0.5,0-0.6-0.1
			s-0.6-0.1-0.6-0.1l-0.4-0.2l-0.4-0.1l-0.3-0.1h-0.4l-0.6-0.6L30.7,32l-0.5-0.4L29.8,31z"/>
		<polygon id="XMLID_2_" class="st3" points="37,25.9 36.7,25.7 36.4,25.6 36.1,25.5 35.9,25.7 35.7,25.8 35.4,25.9 34.9,26.2 
			34.5,26.3 34,26.3 33.5,26.2 32.9,26.2 32.4,26.2 32.1,26.2 31.7,26.3 31.2,26.2 30.7,26.1 30.3,26 29.5,25.5 28.9,25 28.5,24.5 
			28.2,24.1 27.9,23.6 27.7,23.1 27.5,22.8 27.3,22.2 27.2,21.6 26.8,20.9 26.5,20.6 26.3,20.3 26,20.3 25.9,20.1 25.8,19.9 
			26.2,19.9 26.3,19.8 26.8,19.7 27.3,19.5 27.7,19.4 28.3,19.3 28.8,19.2 29.2,19.1 29.4,18.9 29.6,18.8 29.9,18.7 30.8,18.5 
			31.2,18.5 31.7,18.5 32.1,18.6 32.4,18.6 32.8,18.7 33.5,19 33.9,19.3 34.5,19.6 34.9,19.9 35.2,20.3 35.2,20.6 35.4,21.1 
			35.5,21.4 35.5,21.9 35.5,22.2 35.7,22.5 36,22.8 36.4,23.1 36.7,23.4 36.9,23.6 37,24 37,24.3 36.9,24.7 36.7,24.9 36.7,25.1 
			37,25.5 37.2,25.7 37.3,26 		"/>
		<path id="XMLID_6_" class="st3" d="M37.7,25.7l0.2-0.3l0.1-0.1l0.2-0.3l0.2-0.2l0.5,0.1l0.5,0.1l0.5,0.1l0.9-0.2l0.8-0.7l0.4-0.7
			l0.3-0.6l0.2-0.4l0.1-0.5l-0.1-0.7l-0.1-0.6l-0.1-0.4l-0.1-0.4l0.1-0.7v-0.5v-0.5L42,18.3l-0.2,0.1l-0.3,0.2l-0.2,0.2l-0.1,0.1
			h-0.4L40.2,19l-0.3,0.1l-0.4,0.1l-0.3,0.2l-0.3,0.3L38.6,20l-0.3,0.3L38,20.7L37.7,21l-0.3,0.4l-0.2,0.4l-0.1,0.4v0.4l0.2,0.4
			l0.1,0.4c0,0,0.1,0.3,0.2,0.3l0.2,0.2l-0.1,0.3l-0.2,0.3L37.2,25l-0.1,0.3l0.1,0.2L37.7,25.7z"/>
		<polygon id="XMLID_5_" class="st3" points="50.1,50.8 50,51 49.9,51.5 50,51.9 50.2,52.1 50.4,52.4 50.5,52.7 50.9,53.1 
			51.2,53.3 51.5,53.5 52,53.5 52.3,53.5 52.5,53.5 53.1,53.9 53.6,54.3 53.9,54.5 54.3,54.5 54.7,54.8 55.1,55.1 55.4,55.7 
			55.5,55.9 55.8,55.7 56.1,55.2 56.3,54.9 56.4,54.5 56.5,54.2 56.5,53.8 56.5,53.3 56.5,52.4 56.4,52 56.2,51.4 55.9,51.1 
			55.5,50.9 55.3,50.7 54.9,50.2 54.4,49.9 53.9,49.6 53.4,49.5 52.9,49.5 52.3,49.5 51.7,49.6 51.2,49.9 50.8,50.1 50.6,50.3 
			50.4,50.5 50.2,50.2 49.9,50.2 49.9,50.3 		"/>
		<polygon id="XMLID_10_" class="st3" points="48.8,48.9 48.9,48.3 48.8,47.9 48.9,47.6 48.9,47.2 48.9,46.8 48.6,46.4 48.5,46.1 
			48.3,45.8 48.1,45.5 48,45.2 47.8,45 47.5,44.7 47.2,44.4 46.9,44 46.6,43.7 46.3,43.4 46.5,43.8 46.4,44.2 46.4,44.5 46.3,44.9 
			46.1,45.2 46,45.6 46,46.1 46,46.6 46,47 46.1,47.4 46.4,47.7 46.7,48.2 47.1,48.5 47.4,48.7 47.8,48.8 48.1,48.9 48.3,49.2 
			48.7,49.1 		"/>
		<path id="XMLID_9_" class="st3" d="M58.2,38.4l0.3,0.2l0.3,0.3l0.4,0.3l0.4,0.2l0.5,0.2h0.8l0.6,0.1H62l0.5-0.1l0.5-0.2l0.8-0.6
			l0.6-0.6l0.7-0.5l0.7-0.5l0.4-0.5l0.5-0.2l0.1-0.5l0.4-0.4l0.2-0.4v-0.4l0.5-0.7c0,0,0.2-0.5,0.3-0.6l0.3-0.5l0.1-0.6v-0.5
			l-0.2-0.2v-0.5v-0.3v-0.3l-0.1-0.2l-0.2,0.1l-0.2,0.2l-0.3,0.1L67.4,31l-0.3,0.2l-0.2,0.3c0,0-0.1,0.2-0.2,0.2l-0.3,0.2L66.1,32
			h-0.4l-0.2,0.1l-0.1,0.2h-0.3h-0.7l-0.1,0.1l-0.2,0.2l-0.3,0.3l-0.4,0.2l-0.5,0.3l-0.6,0.1h-0.4l-0.4,0.1l-0.4,0.2L60.7,34
			L60,34.4l-0.7,0.5l-0.5,0.4l-0.5,0.4l-0.4,0.4l-0.2,0.3v0.5v0.6v0.3l-0.3,0.1L57,38.1l-0.4,0.1l-0.4,0.2l-0.1,0.1L56,38.6l1,0.2
			l0.4-0.1l0.4-0.1L58.2,38.4L58.2,38.4z"/>
		<polygon id="XMLID_12_" class="st3" points="39.2,30.5 39.1,30.2 39.2,29.8 39.2,29.6 39.3,29.2 39.6,28.9 39.9,28.6 40.2,28.4 
			40.5,28.3 40.9,28.4 41.4,28.1 42,28.2 42.5,28.3 42.9,28.5 43.3,28.8 43.5,29.1 43.5,29.4 43.2,29.4 42.9,29.5 42.8,29.4 
			42.7,29.6 42.6,29.8 42.3,29.9 42.1,30.1 41.8,30.1 41.7,30.2 41.5,30.4 41.3,30.7 41,30.7 40.7,30.9 40.3,31 39.7,31 39.3,30.7 
					"/>
		<path id="XMLID_11_" class="st3" d="M55.4,10.2l0.4,0.2l0.3,0.2l0.4,0.1h0.6l1.4,0.1l0.8-0.2l0.5-0.2l0.6-0.2l0.5-0.1l0.3-0.3
			l0.5-0.6L62.1,9V8.6l0.2-0.5l0.1-0.2l0.2-0.5L62.8,7V6.7l0.3-0.5l0.3-0.6L63.3,5l-0.1-0.6L63.1,4l-0.2-0.2L63,3.5V2.9l-0.1-0.3
			l-0.2-0.4L62.5,2l-0.3-0.4l-0.3-0.4l-0.3-0.4l-0.3-0.3l-0.2-0.2L60.9,0l-0.1,0.2l-0.1,0.3l-0.2,0.3l-0.1,0.3l-0.2,0.3L60,1.9
			l-0.2,0.3l-0.2,0.3l-0.2,0.2l-0.3,0.1l-0.2,0.1h-0.3h-0.2v0.2v0.3l-0.1,0.2l-0.2,0.3L58,4l-0.4,0.4l-0.3,0.3c0,0-0.1,0.1-0.2,0.1
			C57,4.8,56.7,5,56.7,5l-0.4,0.3L56,5.4l-0.3,0.3L55.5,6l-0.6,0.4l-0.1,0.3l-0.4,0.4l-0.1,0.4l-0.1,0.3l-0.1,0.3v0.4l0.1,0.3
			l0.1,0.3l0.2,0.3l0.3,0.3L55,9.9l-0.1,0.2l-0.2,0.2v0.2l0.1,0.1H55l0.2-0.1L55.4,10.2z"/>
		<path id="XMLID_14_" class="st3" d="M54.2,10.6l-0.1,0.2l-0.5-0.1L53.4,11l-0.2,0.3L53,11.6L52.7,12l-0.2,0.2l-0.2,0.3L52,12.6
			l-0.4,0.1l-0.3-0.2l-0.1-0.2L51,12l-0.3-0.4V11l-0.1-0.4l-0.1-0.3l-0.1-0.4c0,0-0.2-0.6-0.2-0.7L50,8.6l-0.1-0.3L49.8,8l0.1-0.3
			l0.2-0.3L50.2,7l-0.1-0.2V6.5c0,0-0.7-0.4-0.7-0.5s-0.7-0.4-0.7-0.4V5.1l0.7-0.3l0.4-0.3c0,0,0.2-0.3,0.2-0.4c0-0.1,0.4-1,0.4-1
			l0.2-0.4L51,2.3l0.3,0.1l0.1,0.8l0.2,0.5l0.3,0.5c0,0,0.3,0.4,0.4,0.4c0.1,0,0.5,0.3,0.5,0.3s0.3,0.2,0.4,0.2l0.5,0.6
			c0,0,0.1,0.3,0.1,0.5C53.9,6.3,54,6.5,54,6.5l0.1,0.4l0.1,0.5v0.5v0.4l-0.1,0.6L54,9.5v0.4v0.3L54.2,10.6z"/>
		<path id="XMLID_13_" class="st3" d="M58.3,91.7l-0.2-0.2v-0.4l0.1-0.3l-0.3-0.2l-0.3-0.2l-0.3-0.3l-0.5-0.3l-0.2-0.2l-0.5-0.3
			l-0.2-0.4l-0.2-0.5L55.6,88l-0.1-0.3l-0.1-0.3c0,0,0-0.4,0-0.5s0-0.6,0-0.6l0.1-0.4l0.2-0.5l0.3-0.2l0.1-0.3v-0.4v-0.3l0.1-0.2
			c0,0,0.1-0.3,0.1-0.4s0.1-0.3,0.1-0.3l0.3-0.5l0.3-0.4l0.2-0.2l0.5-0.2l0.3-0.1c0,0,0.3-0.1,0.3-0.2l0.3-0.3l0.1-0.2l0.4,0.2
			l0.3-0.2l0.5-0.2h0.4l0.7-0.1l1,0.2l0.2,0.1v0.3l0.1-0.1L62,81.6l-0.2,0.3l-0.2,0.6l-0.1,0.4l-0.1,0.4l0.1,0.2l0.4,0.4l0.5,0.3
			v0.3c0,0-0.9,0.4-0.9,0.5c0,0-0.1,0.1-0.2,0.2c0,0-0.1,0.2-0.1,0.3s0,0.7,0,0.7l-0.1,0.7l0.2,0.5l0.1,0.6l-0.3,0.3v0.4
			c0,0-0.1,0.4-0.1,0.5l-0.3,0.3c0,0-0.1,0.3-0.2,0.4c-0.1,0.1,0,0.5,0,0.5s-0.2,0.2-0.3,0.2l-0.3,0.2c0,0-0.4,0.1-0.5,0.1L59.2,91
			l-0.4,0.1l-0.1,0.2L58.3,91.7z"/>
		<polygon id="XMLID_15_" class="st3" points="62.7,95.1 63,94.8 63.3,94.6 62.9,94.3 62.6,93.8 62.4,93.4 62.2,93.1 62.1,92.8 
			61.9,92.5 61.9,92.1 62,91.1 62.4,90.8 62.7,90.7 63.3,90.7 63.9,90.6 64.3,90.7 64.6,90.9 65.3,90.9 66.5,90.9 67,91.2 
			67.8,91.4 68.7,91.7 69.2,92.2 69.6,92.6 70.3,92.9 71.3,93.4 71.9,93.7 72.5,94.2 73.2,94.6 73.9,95.3 74.3,95.6 74.4,96 
			74.1,96.1 73.6,96 73.1,95.9 72.3,96 71.7,96.2 71,96.3 70.4,96.7 69.9,96.9 69.4,97.2 68.4,97.3 67.6,97.1 66.8,96.8 66,96.4 
			65,95.8 64,95.2 63.7,94.9 63.2,95.1 		"/>
		<polygon id="XMLID_17_" class="st3" points="10.7,84.8 10.5,85.1 10.2,85.4 10,85.6 10,85.2 9.7,85 9.2,84.6 8.7,84.7 8.2,84.6 
			7.9,84.7 7.8,85 7.1,85 6.3,85 6.2,85.3 5.9,85.5 4.9,86.1 4.2,86.6 3.6,87.1 2.6,88.1 1.9,88.9 1.2,89.6 0.6,90.4 0,91.1 0,91.1 
			1.1,91.4 2.8,91.6 3.6,91.7 3.9,91.4 5.5,91.4 6.7,90.8 7.9,90.1 9,88.9 9.5,87.6 9.9,86.5 10.4,86.1 10.8,85.5 10.9,85.1 		"/>
		<polygon id="XMLID_18_" class="st3" points="10.4,84.3 9.5,83.5 9,82.9 8.6,82.6 8.2,82.7 7.7,83 7.1,83.2 6.3,83.3 5.6,83.3 
			4.9,83 4.3,82.4 3.7,81.8 3.2,81.3 2.9,80.8 2.4,80.1 2,79.7 2,79.3 2.1,78.8 1.8,78.5 1.7,78.1 1.8,77.4 1.8,76.9 1.5,76.6 
			0.8,75.2 3.9,75.2 6.4,75.4 7,75.7 7.9,76.2 8.8,76.8 9.6,77.4 10.2,78.2 10.3,78.8 10.4,79.6 10.2,80.2 9.8,81.2 9.4,81.7 
			9.3,82 10.6,83.6 10.8,83.9 10.6,84.4 		"/>
		<path id="XMLID_8_" class="st3" d="M46.3,49.3l0.1,0.4l0.1,0.3l0.1,0.3l-0.2,0.1L46,50.6l-0.3,0.2l-0.2,0.3l-0.2,0.3v0.4v0.3
			c0,0-0.1,0.2-0.1,0.3c0,0.1-0.1,0.5-0.1,0.5l0.1,0.3l0.3,0.3V54l-0.1,0.4l0.1,0.4v0.4l-0.1,0.2l0.1,0.4v0.4l-0.2,0.3l-0.1,0.4v0.4
			l0.1,0.4l0.1,0.2l0.3-0.1l0.6-0.1l0.6-0.4l0.3-0.3l0.4-0.6l0.2-0.4l0.2-0.3l0.2-0.4l0.2-0.5l0.1-0.5l0.1-0.4l0.1-0.5v-0.7
			l-0.1-0.8l-0.2-0.6l-0.2-0.2l-0.4-0.3l-0.3-0.2l-0.4-0.2l-0.2-0.3l-0.1-0.3l-0.1-0.3l-0.2-0.3L46.3,49.3z"/>
		<path id="XMLID_16_" class="st4" d="M8.3,86.3l-0.2,0.3l-0.7,0.3l-0.5,0.2l-0.4-0.7L6.3,86L6,85.6l-0.1-0.1l-0.3,0.2l0.3,0.5
			l0.3,0.5L6,86.8l-0.3-0.3l-0.4-0.1l-0.4-0.2l-0.3,0.1l-0.3,0.4l0.1,0.2L5,87.1h0.6l0.5,0.2l0.2,0.1l-0.5,0.3L5.3,88l-0.5,0.3
			l-0.3,0.1H3.9l-0.3-0.3l-0.2-0.2H3.2L3,88.1l0.2,0.4l0.4,0.4L3,89.5l-0.2,0.2l-0.4,0.2l-0.3,0.2l-0.4,0.2l-0.6,0.1l-0.5,0.4
			l-0.5,0.3h0.5l0.8-0.2l0.5-0.3l0.8-0.5l0.5-0.3l0.5-0.5l0.5-0.5l0.5-0.1l0.6-0.2l0.5-0.3l0.3-0.1v0.4l-0.3,0.3l-0.5,0.4l-0.7,0.4
			l-0.5,0.3l-0.4,0.2l-0.2,0.3l-0.2,0.4l-0.2,0.3v0.2l0,0L3.5,91L4,90.7l0.5-0.3L5,89.9l0.5-0.2l0.3-0.3l0.3-0.2l0.7-0.5l0.7-0.5
			v-0.3l-0.3-0.1l0.1-0.1l0.4-0.2l0.4-0.2l0.4-0.2L8.8,87h0.3v0.4l-0.4,0.5l-0.4,0.3c0,0-0.6,0.4-0.6,0.5s-0.3,0.4-0.3,0.4l-0.5,0.5
			L6.5,90l-0.3,0.2l-0.4,0.2l-0.2,0.2l-0.3,0.3l-0.1,0.3L5.5,91l0.4-0.1l0.4-0.2l0.1-0.3l0.3-0.3l0.4-0.3l0.3-0.3l0.5-0.3l0.3-0.4
			l0.3-0.4L8.8,88l0.3-0.4l0.1-0.3l0.1-0.2l0.2,0.1l0.2-0.3l0.1-0.3l-0.3-0.2l0.8-0.4l0.2-0.1l0.4-0.5l0.1-0.3c0,0-0.3,0-0.4,0.1
			s-0.3,0.3-0.3,0.3L10,85.7l-0.2-0.2l-0.5,0.6H9l-0.1-0.4c0,0-0.1-0.4-0.1-0.5s-0.1-0.3-0.1-0.3l-0.2-0.1l-0.3-0.1l-0.1,0.6H7.9
			c0,0-0.4,0-0.5,0s-0.5,0-0.5,0l-0.5,0.1l0.1,0.5L7,86.4h0.5l0.7-0.3L8.3,86.3z"/>
		<path id="XMLID_7_" class="st4" d="M3.1,81.2l0.2-0.4l0.5-0.3l0.3-0.1l0.2-0.1h0.4l0.4-0.1h1.1l-0.3-0.5l-0.3-0.4L5.5,79l-0.3-0.2
			L5,78.6c-0.1-0.1-0.4-0.2-0.4-0.2l-0.1-0.5l-0.3-0.6h-1L2.8,78l-0.7,0.2H2l0.3-0.1l0.2-0.2l0.7-0.1l0.5-0.1h0.4l-0.2-0.1l-0.6-0.2
			l-0.4-0.1l-0.4-0.2l-0.3-0.2c0,0-0.2-0.1-0.3-0.1c-0.1,0-0.2-0.1-0.2-0.1l-0.3-0.3l-0.1-0.3l-0.1-0.2l1.3,0.3l0.6,0.2
			c0,0,0.3,0,0.4,0S4,76.7,4,76.7L4.2,77l0.3,0.2l0.1,0.1l0.1-0.2v-0.6v-0.4v-0.4l0.2-0.2H4.3H3.5v0.6l1.1,0.2l0.6,0.6l0.3,0.4v0.2
			v0.2L5.8,78L6,78.4l0.2,0.3L6.5,79l0.3,0.4L7,79.2l0.3-1l0.1-0.4l0.1-0.5l0.1-0.5v-0.4l-0.1-0.3l0.6,0.3l0.2,0.1
			c0,0-0.2,0.2-0.2,0.3S8,77.5,8,77.5L7.9,78c0,0-0.1,0.5-0.1,0.6s-0.2,0.6-0.2,0.6l-0.2,0.4l-0.2,0.1l0.7,1l0.5,0.5l0.4,0.3
			l0.3,0.2h0.2l0.1,0.1L9.3,82l0.1,0.4l0.2,0.3l0.3,0.2l0.4,0.4l0.4,0.4L10.6,84l-0.4-0.3l-0.3-0.3l-0.5-0.2l-0.5-0.5l-0.3-0.2
			l-0.2,0.1l-0.1-0.3l-0.4-0.6l-0.7-0.9l-0.3-0.4l-0.1-0.2l-0.3,0.2l-0.6,0.3H5.3H4.8H4.4L4.1,81l-0.3,0.2l-0.3,0.2L3.1,81.2z"/>
		<polygon id="XMLID_19_" class="st4" points="68.4,30.6 68.3,31 68,31.4 67.8,32 67.5,32.5 67.1,33.3 66.7,33.7 66.2,34.2 
			65.8,34.7 65.4,35.1 65.9,35.2 66.6,35.2 67.1,35.4 67.3,35.4 67,35.4 66.7,35.4 66.3,35.4 66,35.4 65.6,35.4 65.4,35.3 
			65.1,35.4 64.1,36.1 64.6,36.3 65.2,36.3 65.6,36.4 66.1,36.4 66.5,36.4 66.5,36.5 66.3,36.6 65.2,36.5 64.7,36.5 64.2,36.4 
			63.8,36.3 63.4,36.4 62.6,36.7 62,36.9 61.8,36.9 62.8,37.1 63.6,37.1 64.5,37.3 65.4,37.3 65.3,37.5 64.2,37.4 63.4,37.4 
			61.8,37.2 61.5,37.1 60.9,37.4 59.8,37.8 60.4,38 61.2,38.2 62.1,38.4 63,38.5 63.6,38.6 63.3,38.7 62.6,38.7 61.9,38.6 
			61.2,38.6 60.4,38.4 59.7,38.1 59.2,38.2 58.7,38.3 58.2,38.3 57.8,38.4 57.3,38.6 57,38.7 56.5,38.6 56.2,38.6 56.7,38.2 
			57.2,37.9 57.7,37.8 58.1,37.8 58.6,37.8 59.2,37.6 59.5,37.5 59.7,36.9 60,36.3 60.4,35.8 60.8,35.1 61.3,34.5 61.6,34 
			61.9,33.9 61.6,34.2 61.1,34.8 60.5,35.8 59.8,37.1 59.7,37.4 60.2,37.2 61.2,36.8 61.6,36.1 62.3,34.8 62.7,33.9 63,33.5 
			63,33.7 62.6,34.3 62.1,35.4 61.6,36.3 61.3,36.7 61.7,36.6 62.4,36.3 63.1,36 63.4,35.3 63.5,34.8 63.7,33.9 63.7,33.5 
			63.9,33.1 63.8,33.5 63.7,34.1 63.6,35 63.4,35.6 63.2,36 63.7,35.7 64.1,35.4 64.7,35 64.7,34.8 64.7,34.4 64.8,34.1 65,33.9 
			65,34.2 64.9,34.6 64.9,34.8 65.2,34.6 65.8,34.1 66,33.8 66.3,33.3 67,32.5 67.3,31.9 67.4,31.6 67.6,31.1 67.8,30.8 68.1,30.6 
					"/>
		<path id="XMLID_20_" class="st4" d="M62.3,7.2l-0.4,0.3l-0.4,0.2l-0.4,0.1l-0.4,0.1L60.3,8l-0.5,0.1l-0.6,0.1h-0.4l-0.5,0.1
			l-0.4,0.4L57.4,9l-0.8,0.4l0.3,0h0.5h0.4h0.7l0.8-0.1l1-0.3l0.5-0.2l0.7-0.2L62,8.5l-0.7,0.3L60.8,9l-1,0.3l-0.9,0.1l-1.2,0.1
			l-1.4,0.1l-0.6,0.3l-0.4,0.2L55,9.8l0.8-0.5l-0.1-0.5l-0.1-0.4l-0.1-0.5l-0.2-0.5l0.1-0.5l-0.1-0.5V6.2l0.1-0.3L55.5,6l0.1,0.4
			L55.7,7l0.2,0.6L56,8.3l0.1,0.4l0.4-0.3L56.9,8l0.3-0.4l0.3-0.3V6.8l-0.2-0.4l-0.2-0.2L56.9,6l-0.3-0.2l-0.3-0.2L56,5.4l0.1-0.2
			L56.4,5l0.5,0.4l0.3,0.4l0.4,0.3l0.3,0.5L58,6.9l0.4-0.2l0.2-0.3l0.3-0.3l0.2-0.2l0.2-0.3l0.2-0.3L59.6,5l0.1-0.3V4.4V4l-0.1-0.3
			l-0.1-0.3l-0.2-0.2L59,3l-0.1-0.1V2.8h0.2l0.3,0.1L59.7,3L60,3.2l0.2,0.3l0.2,0.2l0.1,0.1l1.1-0.1l1-0.2V3.3L61.7,3l-0.4-0.3
			l-0.2-0.4L61,2l-0.1-0.3L61,1.5V1.4l-0.1-0.2L60.8,1V0.8l0.1-0.2l0.2-0.3V0.1l0.1,0.1l0.1,0.2l0.1,0.3V1l-0.1,0.3l0.1,0.2l0.2,0.3
			l0.6,0.1l0.5,0.3V2.1v0.7V3v0.1v0.6v0.5v0.3L62,4.8L61.4,5h-0.6h-0.1v0.2v0.2l-0.2,0.3L60.4,6l-0.2,0.4L60,6.6l-0.2,0.2l-0.3,0.1
			L59.3,7l-0.1,0.1l0.1,0.1h0.4H60l0.7-0.1L61.3,7h0.3c0,0,0.2,0,0.3,0l0.3-0.1l0.2-0.1l0.1,0.1l0.1,0.2L62.3,7.2z"/>
		<path id="XMLID_22_" class="st4" d="M54,10.4L53.7,10l-0.2-0.3V9.3l-0.1-0.8l-0.1-1.2v-1V5.9l-0.2-0.3v0.5v0.4v0.4v0.6v0.6v1v0.3
			v0.2L53,9.4L52.7,9l-0.3-0.4L52,8.1l-0.2-0.3l-0.2-0.3L51.3,7l-0.1-0.2l0.1-0.3l0.2-0.2l0.1-0.2V5.9V5.6V5.2V4.9V4.7V4.5V4.3V4.2
			l-0.1-0.1v0.2v0.5l0.1,0.7l-0.1,0.4L51.3,6l-0.1,0.1L51,6.4V6.1V5.6V5.1V4.7V4.3l-0.3-0.4c0,0-0.3-0.2-0.3-0.3s0-0.8,0-0.8
			l0.2-0.3V2.3v0.2v0.4l-0.1,0.4l-0.1,0.3l-0.2,0.7l-0.1,0.3L50,4.9l0.1,0.6c0,0,0,0.3,0,0.4s0.1,0.4,0.1,0.4v0.4l0.1,0.4l0.2,0.3
			L50.9,8l0.5,0.5l0.2,0.2h-0.2l-0.3,0.1l-0.3,0.1L50.6,9l0.1,0.2c0,0,0.2,0,0.3,0c0,0,0.1-0.1,0.2-0.1s0.8,0,0.8,0h0.2l0.1,0.1
			l0.2,0.2l0.6,0.3l0.2,0.3l0.2,0.2l0.2,0.1l0.3,0.2l0.1-0.2L54,10.4z"/>
		<path id="XMLID_21_" class="st4" d="M37.6,25.2l0.3-0.6l0.2-0.4L38,23.8l0.4,0.1l0.4-0.3l0.3-0.4l0.3-0.3l-0.1-0.4l-0.2-0.4
			l-0.2-0.6v-0.4l-0.1-0.3l-0.1-0.4l0.4,0.1l0.2,0.2l0.2,0.6v0.5l0.1,0.4l0.4-0.3l0.2-0.3l0.2-0.3v-0.2l-0.1-0.3l-0.1-0.2v-0.2v-0.3
			v-0.4l0.2,0.2l0.1,0.4l0.1,0.4l0.2-0.2l0.1-0.1l0.1-0.2l0.1-0.2l0.1-0.2l0.3-0.2L41.4,20l-0.1,0.3l-0.1,0.3l-0.1,0.3L41,21.2
			l0.3,0.2h0.3l0.5-0.1l0.2,0.1l-0.2,0.1l-0.4,0.1l-0.3-0.1h-0.3H41l-0.1,0.2l-0.1,0.2l-0.2,0.2l-0.2,0.2l-0.2,0.2l-0.1,0.1l0.2,0.1
			h0.3l0.4,0.1h0.4h0.3l0.3-0.1l0.2-0.1l0.1,0.2l-0.1,0.3L42,23.3l-0.2,0.5l-0.3,0.5h-0.1c0,0-0.6,0-0.7,0h-0.4L40,23.7l-0.2-0.3
			h-0.1l-0.2,0.2l-0.2,0.3l-0.4,0.5l-0.2,0.2l-0.2,0.2L38.4,25l-0.2,0.2L38,25.4l-0.2,0.2h-0.1v-0.2L37.6,25.2z"/>
		<path id="XMLID_23_" class="st4" d="M34.7,24.4H34l-0.5,0.2l-0.6,0.1l-0.4,0.1l-0.6,0.1h-0.3l-0.2-0.1l-0.1-0.2v-0.2l0.3-0.1
			l0.5-0.1l0.8-0.1h0.4h0.2c0,0-0.3-0.1-0.3-0.2L33,23.7l-0.3-0.2l-0.1-0.2l-0.1-0.2L32.4,23l-0.2-0.1L32,23h-0.3l-0.2-0.2l-0.1-0.3
			l-0.1-0.4l-0.2-0.5L31,21.1l-0.2-0.5c0,0,0-0.4,0-0.5v-0.6h0.3l0.2,0.2v0.6l0.1,0.6l0.2,0.8l0.4,0.2l0.2,0.1h0.2l0.3,0.2l0.2,0.3
			l0.4,0.5l0.3,0.3l0.4,0.3l0.5,0.1l0.4,0.4l0.1,0.2L34.7,24.4z"/>
		<polygon id="XMLID_24_" class="st4" points="33,21.1 32.8,21.1 32.7,21 32.7,20.7 32.6,20.4 32.4,20.1 32.4,19.8 32.3,19.5 
			32.3,19.3 32.3,19.1 32.3,18.8 32.4,18.8 32.7,18.9 33.1,19 33.1,19.3 33.1,19.7 33.2,20.5 33.1,21 		"/>
		<path id="XMLID_25_" class="st4" d="M29.7,22h-0.2l-0.1,0.1l-0.3,0.1l-0.2,0.1h-0.2l-0.1-0.2l0.2-0.1l0.3-0.1l0.2-0.1l0.1-0.2
			v-0.1l-0.1-0.2H29h-0.2h-0.3h-0.4c0,0-0.2-0.1-0.3-0.1l-0.2-0.1l-0.3-0.2l-0.2-0.2l-0.2-0.2l-0.2-0.1l-0.1-0.1h0.3l0.2,0.1
			l0.3,0.2c0,0,0.3,0.1,0.4,0.1l0.3,0.2c0,0,0.3,0,0.4,0l0.3-0.2l0.1-0.2h0.3l0.2,0.1l0.4,0.2l0.1,0.2v0.4v0.3L29.7,22z"/>
		<path id="XMLID_27_" class="st4" d="M36.8,25.6h-0.2l-0.2-0.1h-0.2L36,25.4h-0.2l-0.2-0.1c0,0-0.1-0.1-0.1-0.2s0.1-0.3,0.1-0.3
			h0.2v-0.3c0,0,0-0.2,0-0.3s0.1-0.2,0.1-0.2s0.2,0.1,0.2,0.2s0,0.4,0,0.4l0.1,0.2l0.2,0.2l0.3-0.1l0.2,0.3L36.8,25.6z"/>
		<polygon id="XMLID_28_" class="st4" points="39.3,30.3 39.6,30.1 40,29.8 40.3,29.5 40.8,29.3 41.2,29.1 41.7,29 42.3,28.9 
			42.9,28.8 43.3,29 43.2,29.2 42.6,29.1 42.1,29.1 41.7,29.3 41.1,29.4 40.6,29.6 40.1,30 39.7,30.2 39.5,30.4 		"/>
		<path id="XMLID_26_" class="st4" d="M37,31l-1.2-0.2l-0.1-0.4l-0.1-0.5l-0.2-0.1h-0.2H35h-0.4h-0.3l0.7,0.4v0.4l-0.2,0.2H34
			l-0.4-0.1v-0.5l-0.2-0.3L33,30l-0.4-0.3v-0.3h-0.8l-0.2,0.5l-0.5,0.4l-0.2-0.2l-0.3-0.6h-0.5l0.3,1l0.2,0.6l0.4,0.2l0.3,0.1
			l0.6-0.1c0,0,0.3,0,0.4,0.1c0.2,0.1,0.7,0.1,0.8,0.1s0.7-0.1,0.7-0.1h1l-0.3,0.3L33.6,32l-0.5,0.1h-0.4l-0.6,0.2l-0.3,0.2l0.9-0.1
			l2-0.5l0.7-0.4h0.4l0.9-0.1l0.4,0.1l-0.4,0.3L36,32.2l-1,0.4c0,0-0.5,0.1-0.9,0.2c-0.3,0.1,0,0.2,0,0.2l0.9-0.1l0.9-0.2l0.4-0.2
			c0,0,0.4-0.2,0.5-0.3c0.1-0.1,0.6-0.4,0.6-0.4l0.3-0.2l0.6-0.1l-0.5-0.3l-0.3-0.6l-0.4-0.3L36.7,30h-0.3l0.2,0.3l0.3,0.4l0.2,0.6
			L37,31z"/>
		<polygon id="XMLID_30_" class="st4" points="46.3,49.4 46.5,49.8 46.5,50.2 46.4,50.7 46.4,51 46.7,51.3 46.8,51.7 46.9,52.2 
			47,52.5 46.6,52.8 46.2,53.1 45.9,53.4 45.6,53.7 45.4,54.2 45.6,54.3 45.9,54 46.3,53.6 46.7,53.3 47,53 47.1,53.4 46.9,54.1 
			46.8,54.7 46.7,55.3 46.6,55.8 46.4,56.1 46.1,56.4 45.9,56.8 45.7,57.1 45.6,57.3 45.7,57.5 46,57.3 46.3,56.9 46.6,56.4 
			46.8,56 47.1,55.7 47.2,55.3 47.2,55 47.3,54.6 47.4,53.9 47.3,53.1 47.6,53.3 47.8,53.9 48.1,54.3 48.2,54.7 48.5,54.7 
			48.3,54.3 48.2,53.9 48,53.5 47.8,53.1 47.5,52.7 47.4,52.5 47.3,52.2 47.2,51.3 47,50.6 47,50.2 46.9,49.8 46.7,49.5 		"/>
		<polygon id="XMLID_29_" class="st4" points="50.4,50.9 50.9,51.1 51.1,51.3 51.1,51.9 51.1,52.7 51.4,53.1 51.8,53.1 51.5,52.8 
			51.4,52.4 51.4,51.7 51.3,51.2 51.7,51.5 52.3,51.8 52.6,52.1 52.7,52.9 52.8,53.4 53,53.5 53,53.1 52.9,52.6 52.8,52.2 
			53.2,52.4 53.7,52.6 54.1,53 54.5,53.4 54.8,53.5 55.1,54 55.2,54.6 55.4,55.2 55.5,55.5 55.6,55.2 55.6,54.7 55.5,54 55.3,53.5 
			55.1,53.2 54.9,52.8 54.5,52.4 54,52 53.5,51.9 53,51.6 53.3,51.5 54,51.4 54.4,51.3 54.9,51.2 55.4,51 55.4,50.8 54.8,50.7 
			54.4,50.8 53.8,51 52.6,51 52.2,51.1 51.9,51 51.3,50.7 50.8,50.5 50.5,50.4 50.2,50.5 50.2,50.7 		"/>
		<polygon id="XMLID_31_" class="st4" points="48.4,48 48.1,47.9 47.8,47.6 47.5,47.1 47.3,46.5 47.3,45.9 47.4,45.4 47.2,45.1 
			47,44.7 47.1,44.3 47.5,44.9 47.9,45.5 48.2,46.1 48.5,46.7 48.7,47.3 48.6,47.6 		"/>
		<path id="XMLID_33_" class="st4" d="M47.1,48.4c0,0,0.2-0.2,0-0.8c-0.2-0.6-0.2-0.7-0.3-0.7s-0.3-0.3-0.3-0.3h-0.3v0.5l0.8,1.2
			L47.1,48.4z"/>
		<path id="XMLID_32_" class="st4" d="M58,87.7l-0.2-0.3l-0.2-0.3l-0.3-0.5l-0.2-0.4l-0.2-0.4l-0.2-0.4l-0.3-0.5l-0.1-0.2l-0.2-0.2
			L56,84.3v-0.4l0.3,0.2l0.4,0.3l0.2,0.5l0.2,0.5l0.4,0.6l0.3,0.3l0.2,0.4l0.2,0.2l0.1-0.4v-0.4v-0.6l0.1-0.3l0.2-0.4l0.3-0.3
			l-0.1-0.3l-0.1-0.4l0.1-0.5l0.3-0.3l0.3-0.4l0.4-0.4l0.2-0.3l0.3-0.3l0.4-0.2l0.4-0.3l0.3-0.2l0.5-0.1h0.3V81l-0.3,0.4l-0.4,0.2
			l-0.4,0.3l-0.4,0.5l-0.4,0.5L60,83.3l-0.1,0.6l0.3,0.5h0.2l0.4-0.5l0.3-0.1h-0.3l-0.4,0.1l-0.5,0.3l-0.2,0.3L59.5,85l-0.3,0.5
			c0,0-0.1,0.4-0.2,0.5c0,0.1-0.1,0.4-0.1,0.5s0,0.3,0,0.3l0.5-0.2l0.5-0.4l0.4-0.2l0.5,0.1l-0.5,0.1l-0.1,0.2l-0.4,0.3
			c0,0-0.2,0.2-0.3,0.2s-0.3,0.2-0.3,0.2l-0.1,0.4l-0.2,1.2v0.4l0.4-0.2l0.4-0.3l0.4-0.3l0.5-0.3l0.4-0.1v0.3l-0.3,0.3l-0.6,0.2
			l-0.2,0.4l-0.5,0.3l-0.3,0.3l-0.3,0.2v0.6v0.6l-0.1,0.2l-0.3,0.2l-0.2-0.2l0.1-0.4l0.1-0.4v-0.4v-0.4l-0.5-0.3l-0.3-0.3l-0.3-0.3
			l-0.2-0.3L56.9,88l-0.3-0.5L56.3,87L56,86.6l-0.2-0.5l-0.2-0.4l-0.1-0.3l0.2-0.4l0.1,0.5l0.3,0.4c0,0.1,0.3,0.7,0.3,0.7l0.6,0.9
			l0.4,0.9l0.4,0.5l0.2,0.2v-0.3V88L58,87.7z"/>
		<path id="XMLID_34_" class="st4" d="M62.9,95l0.4-0.3l0.2-0.1l-0.2-0.2l-0.2-0.2l-0.2-0.4l-0.2-0.5l-0.2-0.5l-0.1-0.5V92v-0.4
			l0.1-0.3l0.1-0.3l0.2-0.1v0.3l-0.1,0.6v0.4l0.1,0.4l0.2,0.5l0.3,0.7l0.2-0.1l0.2-0.3h-0.1l0.6,0.5h0.3h0.4l0.4-0.1l0.6-0.2
			l0.2-0.1H66l-0.3-0.1h0.2l-0.4-0.2v-0.5v-0.5l-0.1-0.5l-0.1-0.2h0.5l0.3,0.1h0.5l0.5,0.1c0,0,0.6,0.1,0.7,0.2
			c0.1,0,0.5,0.2,0.5,0.2l0.2,0.2c0,0-0.3,0.1-0.4,0.1s-0.5,0.1-0.6,0.1s-0.4,0.2-0.5,0.2s-0.3,0.1-0.3,0.1l0.1,0.3
			c0,0,0.3,0.1,0.4,0.1s0.4,0,0.6-0.1s0.7,0,0.7,0l0.4-0.1l0.5-0.1l0.6,0.2l0.6,0.2l0.3,0c0,0,0.4,0.3,0.6,0.4
			c0.1,0,0.6,0.4,0.6,0.4l0.3,0.3l0.2,0.2l0.2,0.3h-0.3l-0.4-0.2c-0.1,0-0.5-0.2-0.5-0.2l-0.5-0.3c0,0-0.5-0.3-0.6-0.3
			s-0.7-0.2-0.8-0.2s-0.4,0-0.4,0l-0.2,0.2l0.4,0.4c0,0,0.3,0,0.5,0.1c0.1,0.1,0.6,0.5,0.6,0.5s0.3,0.5,0.4,0.5s0.6,0.2,0.6,0.2
			l0.1,0.2c0,0-0.5,0-0.7-0.2c-0.2-0.1-0.6-0.4-0.6-0.4l-0.5-0.3l-0.4-0.2l-0.4-0.4L68.7,94l-1.4-0.1h-0.4L66.2,94l0.4,0.4l0.9,0.6
			l-0.4-0.1l-0.5-0.2l-0.4-0.2l-0.4-0.1h-0.5l-0.4,0.1l-0.3,0.1h-0.1l0.1,0.2l1.1,0.4l1,0.6l0.7,0.3l0.8,0.5l-0.1,0.2l-0.4-0.1
			c0,0-0.5-0.1-0.6-0.2c-0.1,0-1-0.4-1-0.4l-0.5-0.3l-0.5-0.2l-0.5-0.3L64.1,95l-0.3-0.1h-0.7L62.9,95z"/>
		<polygon id="XMLID_36_" class="st4" points="70.4,96.4 70.1,96.5 69.7,96.4 69.3,96.2 68.9,95.8 68.5,95.4 68.8,95.5 69.4,95.7 
			70,96.1 		"/>
	</g>
</g>
</svg>
