<svg id="Слой_1" xmlns="http://www.w3.org/2000/svg" xmlns:xlink="http://www.w3.org/1999/xlink" viewBox="0 0 74.4 148.9"><style>.st0{display:none}.st1{display:inline;fill:none;enable-background:new}.st2{fill:#54320a}.st3{fill:#69e063}.st4{fill:#56d34c}</style><image width="500" height="248" xlink:href="C8DF3489.png" transform="translate(-36.75 36.681) scale(.2822)" overflow="visible" id="Слой_1_1_" class="st0"/><g id="Слой_4"><g id="XMLID_35_"><path id="XMLID_3_" class="st2" d="M57.7 148.2l.3-2.3-1-3.2-.8-3.4-.8-3.2-.7-2.1-.3-1.5v-.8l1.4-1.9.9-1.1 1.1-1.5.9-1.3.6-1.2 1.2-2 .8-1.3.8-1.1.6-1.7.3-1.4.2-1.5-.1-1.7-.5-2.9-.9-3.1-.9-2.5v-4.4l.4-1.8 1.6-4h-.6L60.9 97l-1.1 2.2-.4-.5-.1-2-.1-1.5-.4-4-.8.9v3.7l-.1 1.2.2 2.1.3 2 .4 1.5.2 1.4.3 1.3.5 1.5.2 1.4.3 1.4.4 1.7.3 2.6.2 2.1-.2 1.4-.5 1.1-.6.9-.6 1.3-.9 1.4-.6 1.1-.8 1-.9 1.3-.9 1.3-.7.8-1.2.5-.4-.7-.9-2.8-.8-2.7-.9-2.9-1.1-2.6-1.2-3-2-4.1-1.3-2.7-.8-1.5s-.8-1.2-.8-1.3-.8-1.3-.8-1.3l-.7-1.4-2.4-4.5-1.3-2.8-1.2-2.9-1.3-3.3-1.3-3.3-.7-2.6-.5-2.5-.3-2.3-.1-2.4.4-2.1.6-3.5.7-2.4.7-2.1.9-2.7.6-.9.2-1 .1-.9.6-1.5 1-1.8.9-1.7.8-1.5 1.1-1 .9-.9.8-.9.6-.6.6-.5 1.3.5 1.9.6 1.3.8 1.7.2-.2-.4-.9-.6-.3-.5-.6.1-1.9-.6-1.5-.5-.6-.3 1.2-1.2.9-.8 1.2-1.2 1-.8 1.2-.8 1.1-.8 1.3-.8 1.1-.6.8-.5 1.3-.5 1.9-1.1-1.6-.2-1 .1-1.4.8-1.9 1-1.1.8-1.4.8-1.2.8-1.1.6-1.4 1.5-.8.9-1.1 1.2-1.1 1.2-.9.7-.9.3-.3-.2 1.5-4.1.5-1.6 1.7-6 2.1-8 1.4-3.5 1.3-4 1.1-2.8.9-1.1 1-1.9 1.4-2.3 1.1-1.8.8-1.7-2.6 2.3-1 1.2-1.1 1.5-1.1 1.1-.8 1.4-.9 1.9-2 4.8-1 2.3-.8 2.7-1.3 3.3-.7 2-.6 2.1-.8-2.1-.5-1.7-.4-1.3-.5-1.5-.5-1.4-.4-1.5-.8-1.7-.4.2-.1 1.3.5.9.5 1.2.5 1.6.9 1.6.3 1 .4 1.1.2.8s.2.5.3.8c0 .2.3 1.1.3 1.1l.3.9.2.3-.6 1.1-.9 3.4-3.2 8.2-1.4 3.6-.7.7-.6 1.2L33 58l-.8 2.1-.9 2.3-.8 2.1-.6 2.4-.8 2.2-.4 1.9-.2 2.1-.2 2.3.1 3.3.3 2.7 1.5 5.9 1.7 6.1 2.7 7.3 1.3 3.4 1.4 3 1.3 2.7 1.3 3.3-.7.6-5.2-3-3-1.3-3.4-1.9-2.4-1.4-2.1-1.1-.7-.7-.8-.4-.8-.6-.9-1.1-1.1-1.3-.7-1-.5-1.1-.5-1-.2-1.3-.6-1.2-.4-2.4-.7-2.2-1-2.3-.8-1.6-.7-1-1.9-1.9-.2.5 1 1.7.8 1.4.5 2.7.6 2.4.4 1.7.5 2 .6 2.1.6 2 .6 1.6.9 1.3 1.2 1.3s1.9 1.8 2.1 1.9c.2.1 3.8 3 3.8 3l.3.7.8.1 1.8 1.2 1.2.8.9.8 1.7.7 2.4 1.5 1.8 1 1.1.8 1.5.9 1.5 1.4 1.1.9 1 .7 1.1 1 .8 1.4.6 1.2.5 1.1.4 1.2.2.7.4 1.2.4 1.8.4 1.3.3 1.4.3 2 .2 2.7v1.9l-.1 1.8v2.3l-.5 1.4-.1 1.7.1 1.1h.9l.5.7.4-.9.4-.8.1 1.3.8-.2.7-.9 1.1 1.1.4-1.5 1 1.6.8-1 1 .9h.8l.6-1.1.4.8h1.5z"/><path id="XMLID_4_" class="st3" d="M29.8 31l.1-.2h.5l.5-.2.6-.2.5-.2.3-.1.4-.2.3-.1 1-.2 1-.3 1.2.1h.5l.5.3.4.3.4.8.4.3-.4.1-.6.4-.5.5-.4.3-.4.4-.5.2-.5.2-.6.1s-.5 0-.6-.1-.6-.1-.6-.1l-.4-.2-.4-.1-.3-.1h-.4l-.6-.6-.5-.1-.5-.4-.4-.6z"/><path id="XMLID_2_" class="st3" d="M37 25.9l-.3-.2-.3-.1-.3-.1-.2.2-.2.1-.3.1-.5.3-.4.1H34l-.5-.1H32.1l-.4.1-.5-.1-.5-.1-.4-.1-.8-.5-.6-.5-.4-.5-.3-.4-.3-.5-.2-.5-.2-.3-.2-.6-.1-.6-.4-.7-.3-.3-.2-.3H26l-.1-.2-.1-.2h.4l.1-.1.5-.1.5-.2.4-.1.6-.1.5-.1.4-.1.2-.2.2-.1.3-.1.9-.2h.9l.4.1h.3l.4.1.7.3.4.3.6.3.4.3.3.4v.3l.2.5.1.3v.8l.2.3.3.3.4.3.3.3.2.2.1.4v.3l-.1.4-.2.2v.2l.3.4.2.2.1.3z"/><path id="XMLID_6_" class="st3" d="M37.7 25.7l.2-.3.1-.1.2-.3.2-.2.5.1.5.1.5.1.9-.2.8-.7.4-.7.3-.6.2-.4.1-.5-.1-.7-.1-.6-.1-.4-.1-.4.1-.7v-1l-.3.1-.2.1-.3.2-.2.2-.1.1h-.4l-.6.1-.3.1-.4.1-.3.2-.3.3-.3.3-.3.3-.3.4-.3.3-.3.4-.2.4-.1.4v.4l.2.4.1.4s.1.3.2.3l.2.2-.1.3-.2.3-.3.5-.1.3.1.2.5.2z"/><path id="XMLID_5_" class="st3" d="M50.1 50.8l-.1.2-.1.5.1.4.2.2.2.3.1.3.4.4.3.2.3.2h1l.6.4.5.4.3.2h.4l.4.3.4.3.3.6.1.2.3-.2.3-.5.2-.3.1-.4.1-.3v-1.8l-.1-.4-.2-.6-.3-.3-.4-.2-.2-.2-.4-.5-.5-.3-.5-.3-.5-.1h-1.1l-.6.1-.5.3-.4.2-.2.2-.2.2-.2-.3h-.3v.1z"/><path id="XMLID_10_" class="st3" d="M48.8 48.9l.1-.6-.1-.4.1-.3v-.8l-.3-.4-.1-.3-.2-.3-.2-.3-.1-.3-.2-.2-.3-.3-.3-.3-.3-.4-.3-.3-.3-.3.2.4-.1.4v.3l-.1.4-.2.3-.1.4V47l.1.4.3.3.3.5.4.3.3.2.4.1.3.1.2.3.4-.1z"/><path id="XMLID_9_" class="st3" d="M58.2 38.4l.3.2.3.3.4.3.4.2.5.2h.8l.6.1h.5l.5-.1.5-.2.8-.6.6-.6.7-.5.7-.5.4-.5.5-.2.1-.5.4-.4.2-.4v-.4l.5-.7s.2-.5.3-.6l.3-.5.1-.6v-.5l-.2-.2v-1.1l-.1-.2-.2.1-.2.2-.3.1-.2.2-.3.2-.2.3s-.1.2-.2.2l-.3.2-.3.1h-.4l-.2.1-.1.2h-1l-.1.1-.2.2-.3.3-.4.2-.5.3-.6.1h-.4l-.4.1-.4.2-.4.2-.7.4-.7.5-.5.4-.5.4-.4.4-.2.3V37.8l-.3.1-.4.2-.4.1-.4.2-.1.1-.1.1 1 .2.4-.1.4-.1.4-.2z"/><path id="XMLID_12_" class="st3" d="M39.2 30.5l-.1-.3.1-.4v-.2l.1-.4.3-.3.3-.3.3-.2.3-.1.4.1.5-.3.6.1.5.1.4.2.4.3.2.3v.3h-.3l-.3.1-.1-.1-.1.2-.1.2-.3.1-.2.2h-.3l-.1.1-.2.2-.2.3H41l-.3.2-.4.1h-.6l-.4-.3z"/><path id="XMLID_11_" class="st3" d="M55.4 10.2l.4.2.3.2.4.1h.6l1.4.1.8-.2.5-.2.6-.2.5-.1.3-.3.5-.6.4-.2v-.4l.2-.5.1-.2.2-.5.2-.4v-.3l.3-.5.3-.6-.1-.6-.1-.6-.1-.4-.2-.2.1-.3v-.6l-.1-.3-.2-.4-.2-.2-.3-.4-.3-.4-.3-.4-.3-.3-.2-.2-.2-.3-.1.2-.1.3-.2.3-.1.3-.2.3-.2.5-.2.3-.2.3-.2.2-.3.1-.2.1h-.5v.5l-.1.2-.2.3-.1.1-.4.4-.3.3s-.1.1-.2.1-.4.2-.4.2l-.4.3-.3.1-.3.3-.2.3-.6.4-.1.3-.4.4-.1.4-.1.3-.1.3v.4l.1.3.1.3.2.3.3.3.2.2-.1.2-.2.2v.2l.1.1h.2l.2-.1.2-.3z"/><path id="XMLID_14_" class="st3" d="M54.2 10.6l-.1.2-.5-.1-.2.3-.2.3-.2.3-.3.4-.2.2-.2.3-.3.1-.4.1-.3-.2-.1-.2-.2-.3-.3-.4V11l-.1-.4-.1-.3-.1-.4s-.2-.6-.2-.7l-.2-.6-.1-.3-.1-.3.1-.3.2-.3.1-.4-.1-.2v-.3s-.7-.4-.7-.5-.7-.4-.7-.4v-.5l.7-.3.4-.3s.2-.3.2-.4c0-.1.4-1 .4-1l.2-.4.4-.4.3.1.1.8.2.5.3.5s.3.4.4.4c.1 0 .5.3.5.3s.3.2.4.2l.5.6s.1.3.1.5c.1.1.2.3.2.3l.1.4.1.5v.9l-.1.6-.1.6v.7l.2.4z"/><path id="XMLID_13_" class="st3" d="M58.3 91.7l-.2-.2v-.4l.1-.3-.3-.2-.3-.2-.3-.3-.5-.3-.2-.2-.5-.3-.2-.4-.2-.5-.1-.4-.1-.3-.1-.3v-.5-.6l.1-.4.2-.5.3-.2.1-.3v-.7l.1-.2s.1-.3.1-.4.1-.3.1-.3l.3-.5.3-.4.2-.2.5-.2.3-.1s.3-.1.3-.2l.3-.3.1-.2.4.2.3-.2.5-.2h.4l.7-.1 1 .2.2.1v.3l.1-.1-.3.2-.2.3-.2.6-.1.4-.1.4.1.2.4.4.5.3v.3s-.9.4-.9.5l-.2.2s-.1.2-.1.3v.7l-.1.7.2.5.1.6-.3.3v.4s-.1.4-.1.5l-.3.3s-.1.3-.2.4c-.1.1 0 .5 0 .5s-.2.2-.3.2l-.3.2s-.4.1-.5.1l-.2.1-.4.1-.1.2-.4.4z"/><path id="XMLID_15_" class="st3" d="M62.7 95.1l.3-.3.3-.2-.4-.3-.3-.5-.2-.4-.2-.3-.1-.3-.2-.3v-.4l.1-1 .4-.3.3-.1h.6l.6-.1.4.1.3.2h1.9l.5.3.8.2.9.3.5.5.4.4.7.3 1 .5.6.3.6.5.7.4.7.7.4.3.1.4-.3.1-.5-.1-.5-.1-.8.1-.6.2-.7.1-.6.4-.5.2-.5.3-1 .1-.8-.2-.8-.3-.8-.4-1-.6-1-.6-.3-.3-.5.2z"/><path id="XMLID_17_" class="st3" d="M10.7 84.8l-.2.3-.3.3-.2.2v-.4l-.3-.2-.5-.4-.5.1-.5-.1-.3.1-.1.3H6.3l-.1.3-.3.2-1 .6-.7.5-.6.5-1 1-.7.8-.7.7-.6.8-.6.7 1.1.3 1.7.2.8.1.3-.3h1.6l1.2-.6 1.2-.7L9 88.9l.5-1.3.4-1.1.5-.4.4-.6.1-.4z"/><path id="XMLID_18_" class="st3" d="M10.4 84.3l-.9-.8-.5-.6-.4-.3-.4.1-.5.3-.6.2-.8.1h-.7l-.7-.3-.6-.6-.6-.6-.5-.5-.3-.5-.5-.7-.4-.4v-.4l.1-.5-.3-.3-.1-.4.1-.7v-.5l-.3-.3-.7-1.4h3.1l2.5.2.6.3.9.5.9.6.8.6.6.8.1.6.1.8-.2.6-.4 1-.4.5-.1.3 1.3 1.6.2.3-.2.5z"/><path id="XMLID_8_" class="st3" d="M46.3 49.3l.1.4.1.3.1.3-.2.1-.4.2-.3.2-.2.3-.2.3v.7s-.1.2-.1.3c0 .1-.1.5-.1.5l.1.3.3.3v.5l-.1.4.1.4v.4l-.1.2.1.4v.4l-.2.3-.1.4v.4l.1.4.1.2.3-.1.6-.1.6-.4.3-.3.4-.6.2-.4.2-.3.2-.4.2-.5.1-.5.1-.4.1-.5v-.7l-.1-.8-.2-.6-.2-.2-.4-.3-.3-.2-.4-.2-.2-.3-.1-.3-.1-.3-.2-.3-.2.1z"/><path id="XMLID_16_" class="st4" d="M8.3 86.3l-.2.3-.7.3-.5.2-.4-.7-.2-.4-.3-.4-.1-.1-.3.2.3.5.3.5-.2.1-.3-.3-.4-.1-.4-.2-.3.1-.3.4.1.2.6.2h.6l.5.2.2.1-.5.3-.5.3-.5.3-.3.1h-.6l-.3-.3-.2-.2h-.2l-.2.2.2.4.4.4-.6.6-.2.2-.4.2-.3.2-.4.2-.6.1-.5.4-.5.3h.5l.8-.2.5-.3.8-.5.5-.3.5-.5.5-.5.5-.1.6-.2.5-.3.3-.1v.4l-.3.3-.5.4-.7.4-.5.3-.4.2-.2.3-.2.4-.2.3v.2l.4-.3.5-.3.5-.3.5-.5.5-.2.3-.3.3-.2.7-.5.7-.5v-.3l-.3-.1.1-.1.4-.2.4-.2.4-.2.3-.1h.3v.4l-.4.5-.4.3s-.6.4-.6.5-.3.4-.3.4l-.5.5-.4.4-.3.2-.4.2-.2.2-.3.3-.1.3.3-.2.4-.1.4-.2.1-.3.3-.3.4-.3.3-.3.5-.3.3-.4.3-.4.3-.4.3-.4.1-.3.1-.2.2.1.2-.3.1-.3-.3-.2.8-.4.2-.1.4-.5.1-.3s-.3 0-.4.1l-.3.3-.3.2-.2-.2-.5.6H9l-.1-.4s-.1-.4-.1-.5-.1-.3-.1-.3l-.2-.1-.3-.1-.1.6h-.2-1l-.5.1.1.5.5.5h.5l.7-.3.1.2z"/><path id="XMLID_7_" class="st4" d="M3.1 81.2l.2-.4.5-.3.3-.1.2-.1h.4l.4-.1h1.1l-.3-.5-.3-.4-.1-.3-.3-.2-.2-.2c-.1-.1-.4-.2-.4-.2l-.1-.5-.3-.6h-1l-.4.7-.7.2H2l.3-.1.2-.2.7-.1.5-.1h.4l-.2-.1-.6-.2-.4-.1-.4-.2-.3-.2s-.2-.1-.3-.1c-.1 0-.2-.1-.2-.1l-.3-.3-.1-.3-.1-.2 1.3.3.6.2h.4c.1 0 .5.3.5.3l.2.3.3.2.1.1.1-.2v-1.4l.2-.2H3.5v.6l1.1.2.6.6.3.4v.4l.3.3.2.4.2.3.3.3.3.4.2-.2.3-1 .1-.4.1-.5.1-.5v-.4l-.1-.3.6.3.2.1s-.2.2-.2.3-.1.7-.1.7l-.1.5s-.1.5-.1.6-.2.6-.2.6l-.2.4-.2.1.7 1 .5.5.4.3.3.2h.2l.1.1-.1.2.1.4.2.3.3.2.4.4.4.4-.1.3-.4-.3-.3-.3-.5-.2-.5-.5-.3-.2-.2.1-.1-.3-.4-.6-.7-.9-.3-.4-.1-.2-.3.2-.6.3H4.4l-.3.3-.3.2-.3.2-.4-.2z"/><path id="XMLID_19_" class="st4" d="M68.4 30.6l-.1.4-.3.4-.2.6-.3.5-.4.8-.4.4-.5.5-.4.5-.4.4.5.1h.7l.5.2h.2H65.6l-.2-.1-.3.1-1 .7.5.2h.6l.4.1h.9v.1l-.2.1-1.1-.1h-.5l-.5-.1-.4-.1-.4.1-.8.3-.6.2h-.2l1 .2h.8l.9.2h.9l-.1.2-1.1-.1h-.8l-1.6-.2-.3-.1-.6.3-1.1.4.6.2.8.2.9.2.9.1.6.1-.3.1h-.7l-.7-.1h-.7l-.8-.2-.7-.3-.5.1-.5.1h-.5l-.4.1-.5.2-.3.1-.5-.1h-.3l.5-.4.5-.3.5-.1h.9l.6-.2.3-.1.2-.6.3-.6.4-.5.4-.7.5-.6.3-.5.3-.1-.3.3-.5.6-.6 1-.7 1.3-.1.3.5-.2 1-.4.4-.7.7-1.3.4-.9.3-.4v.2l-.4.6-.5 1.1-.5.9-.3.4.4-.1.7-.3.7-.3.3-.7.1-.5.2-.9v-.4l.2-.4-.1.4-.1.6-.1.9-.2.6-.2.4.5-.3.4-.3.6-.4V34.4l.1-.3.2-.2v.3l-.1.4v.2l.3-.2.6-.5.2-.3.3-.5.7-.8.3-.6.1-.3.2-.5.2-.3.3-.2z"/><path id="XMLID_20_" class="st4" d="M62.3 7.2l-.4.3-.4.2-.4.1-.4.1-.4.1-.5.1-.6.1h-.4l-.5.1-.4.4-.5.3-.8.4H58.5l.8-.1 1-.3.5-.2.7-.2.5-.1-.7.3-.5.2-1 .3-.9.1-1.2.1-1.4.1-.6.3-.4.2-.3-.3.8-.5-.1-.5-.1-.4-.1-.5-.2-.5.1-.5-.1-.5v-.2l.1-.3.1.1.1.4.1.6.2.6.1.7.1.4.4-.3.4-.4.3-.4.3-.3v-.5l-.2-.4-.2-.2-.2-.2-.3-.2-.3-.2-.3-.2.1-.2.3-.2.5.4.3.4.4.3.3.5.1.3.4-.2.2-.3.3-.3.2-.2.2-.3.2-.3.1-.3.1-.3V4l-.1-.3-.1-.3-.2-.2L59 3l-.1-.1v-.1h.2l.3.1.3.1.3.2.2.3.2.2.1.1 1.1-.1 1-.2v-.2l-.9-.3-.4-.3-.2-.4L61 2l-.1-.3.1-.2v-.1l-.1-.2-.1-.2V.8l.1-.2.2-.3V.1l.1.1.1.2.1.3V1l-.1.3.1.2.2.3.6.1.5.3v-.1V4.5l-.7.3-.6.2h-.7v.4l-.2.3-.1.3-.2.4-.2.2-.2.2-.3.1-.2.1-.1.1.1.1h.7l.7-.1.6-.1h.6l.3-.1.2-.1.1.1.1.2-.3.1z"/><path id="XMLID_22_" class="st4" d="M54 10.4l-.3-.4-.2-.3v-.4l-.1-.8-.1-1.2V5.9l-.2-.3v4l-.1-.2-.3-.4-.3-.4-.4-.5-.2-.3-.2-.3-.3-.5-.1-.2.1-.3.2-.2.1-.2V4.2l-.1-.1v.7l.1.7-.1.4-.2.1-.1.1-.2.3V4.3l-.3-.4s-.3-.2-.3-.3v-.8l.2-.3v-.2V2.9l-.1.4-.1.3-.2.7-.1.3-.1.3.1.6v.4c0 .1.1.4.1.4v.4l.1.4.2.3.4.6.5.5.2.2h-.2l-.3.1-.3.1-.2.1.1.2h.3s.1-.1.2-.1h1l.1.1.2.2.6.3.2.3.2.2.2.1.3.2.1-.2-.1.1z"/><path id="XMLID_21_" class="st4" d="M37.6 25.2l.3-.6.2-.4-.1-.4.4.1.4-.3.3-.4.3-.3-.1-.4-.2-.4-.2-.6v-.4l-.1-.3-.1-.4.4.1.2.2.2.6v.5l.1.4.4-.3.2-.3.2-.3v-.2l-.1-.3-.1-.2v-.9l.2.2.1.4.1.4.2-.2.1-.1.1-.2.1-.2.1-.2.3-.2-.1.4-.1.3-.1.3-.1.3-.1.3.3.2h.3l.5-.1.2.1-.2.1-.4.1-.3-.1H41l-.1.2-.1.2-.2.2-.2.2-.2.2-.1.1.2.1h.3l.4.1h.7l.3-.1.2-.1.1.2-.1.3-.2.2-.2.5-.3.5h-.1-1.1l-.3-.6-.2-.3h-.1l-.2.2-.2.3-.4.5-.2.2-.2.2-.1.2-.2.2-.2.2-.2.2h-.1v-.2l-.1-.2z"/><path id="XMLID_23_" class="st4" d="M34.7 24.4H34l-.5.2-.6.1-.4.1-.6.1h-.3l-.2-.1-.1-.2v-.2l.3-.1.5-.1.8-.1H33.5s-.3-.1-.3-.2l-.2-.2-.3-.2-.1-.2-.1-.2-.1-.1-.2-.1-.2.1h-.3l-.2-.2-.1-.3-.1-.4-.2-.5-.1-.5-.2-.5v-1.1h.3l.2.2v.6l.1.6.2.8.4.2.2.1h.2l.3.2.2.3.4.5.3.3.4.3.5.1.4.4.1.2-.3.1z"/><path id="XMLID_24_" class="st4" d="M33 21.1h-.2l-.1-.1v-.3l-.1-.3-.2-.3v-.3l-.1-.3v-.7h.1l.3.1.4.1v.7l.1.8-.1.5z"/><path id="XMLID_25_" class="st4" d="M29.7 22h-.2l-.1.1-.3.1-.2.1h-.2l-.1-.2.2-.1.3-.1.2-.1.1-.2v-.1l-.1-.2H28.1s-.2-.1-.3-.1l-.2-.1-.3-.2-.2-.2-.2-.2-.2-.1-.1-.1h.3l.2.1.3.2s.3.1.4.1l.3.2h.4l.3-.2.1-.2h.3l.2.1.4.2.1.2v.7l-.2.3z"/><path id="XMLID_27_" class="st4" d="M36.8 25.6h-.2l-.2-.1h-.2l-.2-.1h-.2l-.2-.1s-.1-.1-.1-.2.1-.3.1-.3h.2v-.3-.3c0-.1.1-.2.1-.2s.2.1.2.2v.4l.1.2.2.2.3-.1.2.3-.1.4z"/><path id="XMLID_28_" class="st4" d="M39.3 30.3l.3-.2.4-.3.3-.3.5-.2.4-.2.5-.1.6-.1.6-.1.4.2-.1.2-.6-.1h-.5l-.4.2-.6.1-.5.2-.5.4-.4.2-.2.2z"/><path id="XMLID_26_" class="st4" d="M37 31l-1.2-.2-.1-.4-.1-.5-.2-.1h-1.1l.7.4v.4l-.2.2H34l-.4-.1v-.5l-.2-.3-.4.1-.4-.3v-.3h-.8l-.2.5-.5.4-.2-.2-.3-.6h-.5l.3 1 .2.6.4.2.3.1.6-.1s.3 0 .4.1c.2.1.7.1.8.1s.7-.1.7-.1h1l-.3.3-.9.3-.5.1h-.4l-.6.2-.3.2.9-.1 2-.5.7-.4h.4l.9-.1.4.1-.4.3-.7.4-1 .4s-.5.1-.9.2c-.3.1 0 .2 0 .2l.9-.1.9-.2.4-.2s.4-.2.5-.3c.1-.1.6-.4.6-.4l.3-.2.6-.1-.5-.3-.3-.6-.4-.3-.4-.3h-.3l.2.3.3.4.2.6-.1-.3z"/><path id="XMLID_30_" class="st4" d="M46.3 49.4l.2.4v.4l-.1.5v.3l.3.3.1.4.1.5.1.3-.4.3-.4.3-.3.3-.3.3-.2.5.2.1.3-.3.4-.4.4-.3.3-.3.1.4-.2.7-.1.6-.1.6-.1.5-.2.3-.3.3-.2.4-.2.3-.1.2.1.2.3-.2.3-.4.3-.5.2-.4.3-.3.1-.4V55l.1-.4.1-.7-.1-.8.3.2.2.6.3.4.1.4h.3l-.2-.4-.1-.4-.2-.4-.2-.4-.3-.4-.1-.2-.1-.3-.1-.9-.2-.7v-.4l-.1-.4-.2-.3z"/><path id="XMLID_29_" class="st4" d="M50.4 50.9l.5.2.2.2v1.4l.3.4h.4l-.3-.3-.1-.4v-.7l-.1-.5.4.3.6.3.3.3.1.8.1.5.2.1v-.4l-.1-.5-.1-.4.4.2.5.2.4.4.4.4.3.1.3.5.1.6.2.6.1.3.1-.3v-.5l-.1-.7-.2-.5-.2-.3-.2-.4-.4-.4-.5-.4-.5-.1-.5-.3.3-.1.7-.1.4-.1.5-.1.5-.2v-.2l-.6-.1-.4.1-.6.2h-1.2l-.4.1-.3-.1-.6-.3-.5-.2-.3-.1-.3.1v.2z"/><path id="XMLID_31_" class="st4" d="M48.4 48l-.3-.1-.3-.3-.3-.5-.2-.6v-.6l.1-.5-.2-.3-.2-.4.1-.4.4.6.4.6.3.6.3.6.2.6-.1.3z"/><path id="XMLID_33_" class="st4" d="M47.1 48.4s.2-.2 0-.8c-.2-.6-.2-.7-.3-.7s-.3-.3-.3-.3h-.3v.5l.8 1.2.1.1z"/><path id="XMLID_32_" class="st4" d="M58 87.7l-.2-.3-.2-.3-.3-.5-.2-.4-.2-.4-.2-.4-.3-.5-.1-.2-.2-.2-.1-.2v-.4l.3.2.4.3.2.5.2.5.4.6.3.3.2.4.2.2.1-.4v-1l.1-.3.2-.4.3-.3-.1-.3-.1-.4.1-.5.3-.3.3-.4.4-.4.2-.3.3-.3.4-.2.4-.3.3-.2.5-.1h.3v.2l-.3.4-.4.2-.4.3-.4.5-.4.5-.3.4-.1.6.3.5h.2l.4-.5.3-.1h-.3l-.4.1-.5.3-.2.3-.2.5-.3.5s-.1.4-.2.5c0 .1-.1.4-.1.5v.3l.5-.2.5-.4.4-.2.5.1-.5.1-.1.2-.4.3s-.2.2-.3.2-.3.2-.3.2l-.1.4-.2 1.2v.4l.4-.2.4-.3.4-.3.5-.3.4-.1v.3l-.3.3-.6.2-.2.4-.5.3-.3.3-.3.2v1.2l-.1.2-.3.2-.2-.2.1-.4.1-.4v-.8l-.5-.3-.3-.3-.3-.3-.2-.3-.2-.5-.3-.5-.3-.5-.3-.4-.2-.5-.2-.4-.1-.3.2-.4.1.5.3.4c0 .1.3.7.3.7l.6.9.4.9.4.5.2.2V87.7z"/><path id="XMLID_34_" class="st4" d="M62.9 95l.4-.3.2-.1-.2-.2-.2-.2-.2-.4-.2-.5-.2-.5-.1-.5v-.7l.1-.3.1-.3.2-.1v.3l-.1.6v.4l.1.4.2.5.3.7.2-.1.2-.3h-.1l.6.5h.7l.4-.1.6-.2.2-.1H66l-.3-.1h.2l-.4-.2v-1l-.1-.5-.1-.2h.5l.3.1h.5l.5.1s.6.1.7.2c.1 0 .5.2.5.2l.2.2s-.3.1-.4.1-.5.1-.6.1-.4.2-.5.2-.3.1-.3.1l.1.3s.3.1.4.1.4 0 .6-.1.7 0 .7 0l.4-.1.5-.1.6.2.6.2h.3s.4.3.6.4c.1 0 .6.4.6.4l.3.3.2.2.2.3h-.3l-.4-.2c-.1 0-.5-.2-.5-.2l-.5-.3s-.5-.3-.6-.3-.7-.2-.8-.2h-.4l-.2.2.4.4s.3 0 .5.1c.1.1.6.5.6.5s.3.5.4.5.6.2.6.2l.1.2s-.5 0-.7-.2c-.2-.1-.6-.4-.6-.4l-.5-.3-.4-.2-.4-.4-.4-.3-1.4-.1h-.4l-.7.1.4.4.9.6-.4-.1-.5-.2-.4-.2-.4-.1h-.5l-.4.1-.3.1h-.1l.1.2 1.1.4 1 .6.7.3.8.5-.1.2-.4-.1s-.5-.1-.6-.2c-.1 0-1-.4-1-.4l-.5-.3-.5-.2-.5-.3-.5-.3-.3-.1h-.7l-.2.1z"/><path id="XMLID_36_" class="st4" d="M70.4 96.4l-.3.1-.4-.1-.4-.2-.4-.4-.4-.4.3.1.6.2.6.4z"/></g></g></svg>